<svg xmlns="http://www.w3.org/2000/svg" width="24" height="24" viewBox="0 0 24 24">
    <g fill="none" fill-rule="evenodd">
        <path d="M0 0H24V24H0z"/>
        <rect width="24" height="24" fill="#E42F44" rx="12"/>
        <path fill="#FFF" fill-rule="nonzero" d="M14.25 16.5c0 1.243-1.007 2.25-2.25 2.25s-2.25-1.007-2.25-2.25c0-.833.453-1.56 1.125-1.948v-3.677c0-.621.504-1.125 1.125-1.125s1.125.504 1.125 1.125v3.677c.672.389 1.125 1.115 1.125 1.948zm1.125-2.976c.7.793 1.125 1.835 1.125 2.976 0 2.485-2.015 4.5-4.5 4.5h-.032c-2.472-.017-4.48-2.052-4.468-4.523.006-1.132.43-2.165 1.125-2.953V6.375C8.625 4.511 10.136 3 12 3s3.375 1.511 3.375 3.375v7.149zm-.563 2.976c0-1.207-.68-1.835-1.125-2.338V6.375c0-.93-.757-1.687-1.687-1.687s-1.688.757-1.688 1.687v7.787c-.447.507-1.118 1.129-1.125 2.323-.007 1.543 1.25 2.817 2.793 2.827H12c1.55 0 2.812-1.261 2.812-2.812z"/>
    </g>
</svg>
