<svg xmlns="http://www.w3.org/2000/svg" width="24" height="24" viewBox="0 0 24 24">
    <g fill="none" fill-rule="evenodd">
        <path d="M0 0H24V24H0z"/>
        <rect width="24" height="24" fill="#0080C6" rx="12"/>
        <path fill="#FFF" d="M12 20c3.314 0 6-1.804 6-6.222 0-2.946-2-6.205-6-9.778-4 3.573-6 6.832-6 9.778C6 18.196 8.686 20 12 20z"/>
        <path fill="#0080C6" fill-rule="nonzero" d="M9.723 14.274c1.028 0 1.722-.74 1.722-1.629v-.016c0-.89-.667-1.629-1.722-1.629C8.667 11 8 11.74 8 12.629v.016c0 .89.694 1.63 1.723 1.63zm.397 2.635L12.4 14.29l2.841-3.2H13.88l-2.335 2.685-2.787 3.133h1.362zm-.397-3.69c-.235 0-.47-.225-.47-.574v-.016c0-.358.208-.574.47-.574.252 0 .469.225.469.574v.016c0 .358-.235.574-.47.574zM14.277 17C15.306 17 16 16.26 16 15.371v-.016c0-.89-.667-1.63-1.723-1.63-1.055 0-1.722.74-1.722 1.63v.016c0 .89.694 1.629 1.722 1.629zm0-1.055c-.234 0-.469-.225-.469-.574v-.016c0-.358.208-.574.47-.574.252 0 .468.225.468.574v.016c0 .358-.234.574-.469.574z"/>
    </g>
</svg>
