<svg xmlns="http://www.w3.org/2000/svg" width="25" height="25" viewBox="0 0 25 25">
    <g fill="none" fill-rule="evenodd">
        <rect width="25" height="25" fill="#0080C6" rx="7"/>
        <path fill="#FFF" stroke="#FFF" stroke-width=".5" d="M9.235 9l3.095.28 2.583 1.337L12.75 14l1.4 2.431-1.805 3.159c-.217.38-.701.512-1.082.295l-.013-.008c-.384-.23-.512-.726-.286-1.112l1.366-2.334-2.152-3.5 1.366-2.314-1.369-.292-1.14 1.684c-.243.36-.717.484-1.106.289-.33-.166-.464-.569-.298-.9.012-.025.027-.05.042-.073L9.235 9zm-.046 5.134l.956 1.503-1.462 1.888-3.082-.599c-.029-.005-.058-.013-.086-.022-.39-.126-.605-.545-.479-.935.147-.454.612-.723 1.078-.624h0l1.983.42 1.092-1.631zm9.89-3.922c.258.182.32.537.138.794-.012.018-.026.035-.04.051l-1.631 1.83-2.353-.61.751-1.173 1.212.354.982-1.131c.238-.274.645-.324.942-.115zM15.192 6c.828 0 1.5.672 1.5 1.5S16.019 9 15.19 9c-.829 0-1.5-.672-1.5-1.5s.671-1.5 1.5-1.5z"/>
    </g>
</svg>
