<svg xmlns="http://www.w3.org/2000/svg" width="25" height="25" viewBox="0 0 25 25">
    <g fill="none" fill-rule="evenodd">
        <path fill="#EC8922" d="M7 0h11c3.866 0 7 3.134 7 7v11c0 3.866-3.134 7-7 7H7c-3.866 0-7-3.134-7-7V7c0-3.866 3.134-7 7-7z"/>
        <path fill="#FFF" fill-rule="nonzero" d="M18.23 8.281H8.16c-.288 0-.521.236-.521.528v.175H6.77c-.288 0-.521.236-.521.528v5.976c0 .68.544 1.23 1.215 1.23h10.243c.576 0 1.042-.471 1.042-1.054V8.81c0-.292-.233-.528-.52-.528zM7.464 15.664c-.096 0-.173-.079-.173-.176V10.04h.347v5.45c0 .096-.078.175-.174.175zm5.122-.351H9.288c-.144 0-.26-.119-.26-.264v-.176c0-.146.116-.264.26-.264h3.299c.144 0 .26.118.26.264v.176c0 .145-.116.264-.26.264zm4.514 0h-3.299c-.144 0-.26-.119-.26-.264v-.176c0-.146.116-.264.26-.264h3.299c.144 0 .26.118.26.264v.176c0 .145-.116.264-.26.264zm-4.514-2.11H9.288c-.144 0-.26-.118-.26-.264v-.175c0-.146.116-.264.26-.264h3.299c.144 0 .26.118.26.264v.175c0 .146-.116.264-.26.264zm4.514 0h-3.299c-.144 0-.26-.118-.26-.264v-.175c0-.146.116-.264.26-.264h3.299c.144 0 .26.118.26.264v.175c0 .146-.116.264-.26.264zm0-2.11H9.288c-.144 0-.26-.117-.26-.263v-.879c0-.145.116-.264.26-.264h7.813c.144 0 .26.119.26.264v.88c0 .145-.116.263-.26.263z"/>
    </g>
</svg>
