<svg xmlns="http://www.w3.org/2000/svg" width="25" height="25" viewBox="0 0 25 25">
    <g fill="none" fill-rule="evenodd">
        <path fill="#313C49" d="M7 0h11c3.866 0 7 3.134 7 7v11c0 3.866-3.134 7-7 7H7c-3.866 0-7-3.134-7-7V7c0-3.866 3.134-7 7-7z"/>
        <path fill="#FFF" fill-rule="nonzero" d="M18.606 11.965C17.382 9.862 15.1 8.457 12.5 8.457c-2.601 0-4.883 1.406-6.106 3.508-.192.33-.192.74 0 1.07 1.224 2.103 3.506 3.508 6.106 3.508 2.601 0 4.883-1.406 6.106-3.508.192-.33.192-.74 0-1.07zM12.5 15.488c-1.631 0-2.951-1.336-2.951-2.988s1.32-2.988 2.951-2.988 2.951 1.336 2.951 2.988-1.32 2.988-2.951 2.988zm2.257-2.988c0 1.262-1.01 2.285-2.257 2.285-1.246 0-2.257-1.023-2.257-2.285 0-.39.096-.755.266-1.076 0 .52.416.942.929.942.513 0 .93-.422.93-.941 0-.52-.417-.941-.93-.941.316-.172.678-.27 1.062-.27 1.246 0 2.257 1.024 2.257 2.286z"/>
    </g>
</svg>
