<svg xmlns="http://www.w3.org/2000/svg" width="25" height="25" viewBox="0 0 25 25">
    <g fill="none" fill-rule="evenodd">
        <path fill="#45474E" d="M7 0h11c3.866 0 7 3.134 7 7v11c0 3.866-3.134 7-7 7H7c-3.866 0-7-3.134-7-7V7c0-3.866 3.134-7 7-7z"/>
        <path fill="#FFF" fill-rule="nonzero" d="M14.453 16.7v.683c0 .255-.163.472-.39.552v.23c0 .323-.263.585-.586.585h-1.954c-.323 0-.585-.262-.585-.586v-.229c-.228-.08-.391-.297-.391-.552v-.684c0-.162.131-.293.293-.293h3.32c.162 0 .293.131.293.293zm-3.494-1.075c-.242 0-.46-.148-.546-.374-.948-2.47-2.21-2.22-2.21-4.704 0-2.373 1.924-4.297 4.297-4.297 2.373 0 4.297 1.924 4.297 4.297 0 2.484-1.262 2.235-2.21 4.704-.087.226-.304.374-.546.374h-3.082zm-.412-5.078c0-1.077.876-1.953 1.953-1.953.216 0 .39-.175.39-.39 0-.217-.174-.392-.39-.392-1.508 0-2.734 1.227-2.734 2.735 0 .216.175.39.39.39.216 0 .39-.174.39-.39z"/>
    </g>
</svg>
