<svg xmlns="http://www.w3.org/2000/svg" width="25" height="25" viewBox="0 0 25 25">
    <g fill="none" fill-rule="evenodd">
        <rect width="25" height="25" fill="#E42F44" rx="7"/>
        <path fill="#FFF" fill-rule="nonzero" d="M17.77 15.187c-.558-.543-1.252-1.22-1.252-3.859 0-1.938-1.452-3.546-3.357-3.853.093-.13.143-.285.143-.444 0-.431-.36-.781-.804-.781-.444 0-.804.35-.804.781 0 .165.053.318.143.444-1.905.307-3.357 1.915-3.357 3.853 0 2.64-.694 3.316-1.253 3.859-.757.736-.22 2 .853 2h2.81c0 .863.72 1.563 1.608 1.563.888 0 1.607-.7 1.607-1.563h2.811c1.07 0 1.611-1.262.853-2zm-5.27 2.586c.11 0 .2.088.2.196 0 .108-.09.195-.2.195-.554 0-1.004-.438-1.004-.977h.401c0 .324.27.586.603.586z"/>
    </g>
</svg>
