<svg xmlns="http://www.w3.org/2000/svg" xmlns:xlink="http://www.w3.org/1999/xlink" width="20" height="20" viewBox="0 0 20 20">
    <defs>
        <path id="prefix__a" d="M19.375.156h-1.85c-.268 0-.481.224-.468.491l.155 3.233C15.436 1.793 12.792.47 9.837.47 4.503.469.152 4.825.157 10.164c.003 5.346 4.336 9.68 9.68 9.68 2.496 0 4.77-.945 6.487-2.497.2-.18.21-.49.02-.68l-1.327-1.328c-.174-.174-.454-.184-.64-.02-1.21 1.066-2.798 1.712-4.54 1.712-3.797 0-6.87-3.075-6.87-6.875s3.073-6.875 6.87-6.875c2.377 0 4.47 1.206 5.704 3.04l-3.964-.19c-.267-.014-.49.2-.49.467V8.45c0 .26.21.47.468.47h7.82c.26 0 .469-.21.469-.47V.625c0-.259-.21-.469-.469-.469z"/>
    </defs>
    <g fill="none" fill-rule="evenodd">
        <use fill="#8B919C" fill-rule="nonzero" xlink:href="#prefix__a"/>
    </g>
</svg>
