<svg xmlns="http://www.w3.org/2000/svg" width="100" height="100" viewBox="0 0 100 100">
    <g fill="none" fill-rule="evenodd">
        <path d="M0 0H100V100H0z"/>
        <path fill="#FFF" fill-rule="nonzero" d="M30 56.667c4.032 0 7.395 2.863 8.167 6.666h23.5V30H25c-3.682 0-6.667 2.985-6.667 6.667v26.666h3.5c.772-3.803 4.135-6.666 8.167-6.666zm0 16.666c-4.032 0-7.394-2.863-8.167-6.666H15v-30c0-5.523 4.477-10 10-10h36.667C63.507 26.667 65 28.159 65 30v6.667h10l10 13.27v16.73h-6.833c-.773 3.803-4.135 6.666-8.167 6.666s-7.395-2.863-8.167-6.666H38.167c-.773 3.803-4.135 6.666-8.167 6.666zM30 60c-2.761 0-5 2.239-5 5s2.239 5 5 5 5-2.239 5-5-2.239-5-5-5zm40-3.333c4.032 0 7.395 2.863 8.167 6.666h3.5v-12.28L80.874 50H65v8.333c1.393-1.046 3.124-1.666 5-1.666zM70 60c-2.761 0-5 2.239-5 5s2.239 5 5 5 5-2.239 5-5-2.239-5-5-5zm-5-20v6.667h13.362L73.338 40H65z"/>
    </g>
</svg>
