<svg xmlns="http://www.w3.org/2000/svg" xmlns:xlink="http://www.w3.org/1999/xlink" width="13" height="13" viewBox="0 0 13 13">
    <defs>
        <path id="prefix__a" d="M10.104.167H4.688c-.45 0-.813.363-.813.812v.813h-.747c-.215 0-.422.085-.574.238L.863 3.72c-.152.153-.238.36-.238.575v1.83H.49c-.225 0-.407.182-.407.406v.271c0 .224.182.406.407.406h.677c0 .898.727 1.625 1.625 1.625.897 0 1.625-.727 1.625-1.625h2.166c0 .898.728 1.625 1.625 1.625.898 0 1.625-.727 1.625-1.625h.677c.225 0 .407-.182.407-.406V.98c0-.449-.364-.812-.813-.812zM2.792 8.02c-.448 0-.813-.365-.813-.813 0-.448.365-.812.813-.812.448 0 .812.364.812.812 0 .448-.364.813-.812.813zM3.875 4.5H1.437v-.205l1.691-1.69h.747V4.5zm4.333 3.52c-.448 0-.812-.364-.812-.812 0-.448.364-.812.812-.812.448 0 .813.364.813.812 0 .448-.365.813-.813.813z"/>
    </defs>
    <g fill="none" fill-rule="evenodd">
        <path d="M0 0H13V13H0z"/>
        <g transform="matrix(-1 0 0 1 12 2)">
            <mask id="prefix__b" fill="#fff">
                <use xlink:href="#prefix__a"/>
            </mask>
            <use fill="#000" fill-rule="nonzero" xlink:href="#prefix__a"/>
            <g fill="#E42F44" mask="url(#prefix__b)">
                <path d="M0 0H13V13H0z" transform="translate(-1 -2)"/>
            </g>
        </g>
    </g>
</svg>
