<svg xmlns="http://www.w3.org/2000/svg" width="100" height="100" viewBox="0 0 100 100">
    <g fill="none" fill-rule="evenodd">
        <path d="M0 0H100V100H0z"/>
        <g fill-rule="nonzero">
            <path fill="#FFF" d="M21.806 0c4.25 0 7.696 3.515 7.696 7.85h6.413c4.25 0 7.696 3.515 7.696 7.85v20.445c-.823-.217-1.681-.348-2.564-.386V15.7c0-2.89-2.298-5.233-5.132-5.233H33.35v7.85H10.26v-7.85H7.696c-2.834 0-5.13 2.343-5.13 5.233v28.784c0 2.89 2.296 5.233 5.13 5.233h20.852c.14.91.38 1.786.71 2.617H7.696c-4.25 0-7.696-3.515-7.696-7.85V15.7c0-4.335 3.446-7.85 7.696-7.85h6.414c0-4.335 3.445-7.85 7.696-7.85zm9.241 40.314c-.754.945-1.37 2.005-1.816 3.15H15.18v-3.15zm-18.792 0v3.15H9.33v-3.15h2.925zm20.492-7.88v3.15H15.18v-3.15h17.567zm-20.492 0v3.15H9.33v-3.15h2.925zm20.492-7.88v3.15H15.18v-3.15h17.567zm-20.492 0v3.15H9.33v-3.15h2.925zm18.53-14.087H12.827V15.7h17.958v-5.233zm-8.98-7.85c-2.833 0-5.13 2.343-5.13 5.233h10.261c0-2.89-2.297-5.233-5.13-5.233z" transform="translate(23.5 19.714)"/>
            <path stroke="#FFF" stroke-width="3" d="M40.524 37.248c-2.932 0-5.586 1.188-7.507 3.11-1.921 1.92-3.11 4.575-3.11 7.507 0 2.931 1.189 5.585 3.11 7.507 1.921 1.92 4.575 3.11 7.507 3.11 2.932 0 5.586-1.19 7.507-3.11 1.921-1.922 3.11-4.576 3.11-7.507 0-2.932-1.189-5.586-3.11-7.507-1.921-1.922-4.575-3.11-7.507-3.11z" transform="translate(23.5 19.714)"/>
            <path fill="#FFF" d="M43.835 44.654c.387-.4 1.026-.411 1.427-.026.371.355.41.925.11 1.325l-.083.096-4.86 5.026c-.367.379-.958.408-1.359.087l-.096-.087-3.215-3.325c-.387-.4-.375-1.036.027-1.42.37-.356.943-.373 1.334-.06l.093.086 2.487 2.572 4.135-4.274z" transform="translate(23.5 19.714)"/>
        </g>
    </g>
</svg>
