<svg xmlns="http://www.w3.org/2000/svg" xmlns:xlink="http://www.w3.org/1999/xlink" width="13" height="13" viewBox="0 0 13 13">
    <g fill="none" fill-rule="evenodd">
        <path d="M0 0H18V18H0z"/>
        <path fill="#E42F44" d="M10.114 10.24h-.435V.59c0-.28-.234-.508-.523-.508H1.844c-.289 0-.523.228-.523.508v9.649H.886c-.144 0-.261.113-.261.253v.424h9.75v-.424c0-.14-.117-.253-.261-.253zM3.41 1.69c0-.14.117-.254.26-.254h.871c.145 0 .262.114.262.254v.847c0 .14-.117.254-.262.254h-.87c-.144 0-.261-.114-.261-.254V1.69zm0 2.032c0-.14.117-.254.26-.254h.871c.145 0 .262.113.262.254v.846c0 .14-.117.254-.262.254h-.87c-.144 0-.261-.114-.261-.254v-.846zm1.131 3.131h-.87c-.144 0-.261-.114-.261-.254v-.846c0-.14.117-.254.26-.254h.871c.145 0 .262.114.262.254V6.6c0 .14-.117.254-.262.254zm1.654 3.386H4.804V8.462c0-.14.117-.254.26-.254h.871c.144 0 .261.114.261.254v1.778zM7.59 6.6c0 .14-.117.254-.26.254h-.871c-.145 0-.262-.114-.262-.254v-.846c0-.14.117-.254.262-.254h.87c.144 0 .261.114.261.254V6.6zm0-2.031c0 .14-.117.254-.26.254h-.871c-.145 0-.262-.114-.262-.254v-.846c0-.14.117-.254.262-.254h.87c.144 0 .261.113.261.254v.846zm0-2.031c0 .14-.117.254-.26.254h-.871c-.145 0-.262-.114-.262-.254V1.69c0-.14.117-.254.262-.254h.87c.144 0 .261.114.261.254v.847z"/>
    </g>
</svg>
