<svg xmlns="http://www.w3.org/2000/svg" width="101" height="100" viewBox="0 0 101 100">
    <g fill="none" fill-rule="evenodd">
        <path d="M0 0H100V100H0z" transform="translate(.5)"/>
        <g>
            <path fill="#FFF" fill-rule="nonzero" d="M14.951 0c1.651 0 2.99 1.339 2.99 2.99v2.99h14.951V2.99c0-1.651 1.339-2.99 2.99-2.99h2.99c1.652 0 2.99 1.339 2.99 2.99v2.99c4.955 0 8.971 4.017 8.971 8.971v19.86c-.952-.359-1.953-.62-2.99-.771V20.931H2.99v26.912c0 3.303 2.678 5.98 5.98 5.98l23.478.001c.445 1.068 1.014 2.07 1.69 2.99H8.97C4.016 56.814 0 52.798 0 47.844V14.95c0-4.954 4.016-8.97 8.97-8.97V2.99C8.97 1.338 10.31 0 11.96 0h2.991zm26.912 8.97H8.97c-3.303 0-5.98 2.678-5.98 5.981v2.99h44.852v-2.99c0-3.303-2.677-5.98-5.98-5.98zm-2.99-5.98h-2.99v2.99h2.99V2.99zm-23.922 0h-2.99v2.99h2.99V2.99z" transform="translate(.5) translate(19.5 18.5)"/>
            <g stroke="#FFF">
                <path fill-rule="nonzero" stroke-width="3" d="M15.25 1.5c-3.563 0-6.789 1.444-9.124 3.78-2.335 2.334-3.779 5.56-3.779 9.123 0 3.563 1.444 6.788 3.78 9.123 2.334 2.335 5.56 3.78 9.123 3.78 3.563 0 6.789-1.445 9.124-3.78 2.335-2.335 3.779-5.56 3.779-9.123 0-3.563-1.444-6.789-3.78-9.124C22.04 2.944 18.814 1.5 15.25 1.5z" transform="translate(.5) translate(19.5 18.5) translate(30.5 33.889)"/>
                <path stroke-linecap="round" stroke-width="2" d="M14.75 6.815L14.75 14.403 19.15 18.836" transform="translate(.5) translate(19.5 18.5) translate(30.5 33.889)"/>
            </g>
        </g>
    </g>
</svg>
