<svg xmlns="http://www.w3.org/2000/svg" width="18" height="18" viewBox="0 0 18 18">
    <g fill="none" fill-rule="evenodd">
        <path d="M0 0H18V18H0z"/>
        <path fill="#8b919c" d="M13.388 14.563h-.602V1.203c0-.388-.324-.703-.723-.703H1.937c-.399 0-.723.315-.723.703v13.36H.612c-.2 0-.362.157-.362.351v.586h13.5v-.586c0-.194-.162-.351-.362-.351zM4.108 2.726c0-.195.161-.352.36-.352h1.206c.2 0 .362.157.362.352v1.171c0 .195-.162.352-.362.352H4.47c-.2 0-.362-.157-.362-.352V2.727zm0 2.812c0-.194.161-.351.36-.351h1.206c.2 0 .362.157.362.351v1.172c0 .194-.162.351-.362.351H4.47c-.2 0-.362-.157-.362-.351V5.539zm1.566 4.336H4.47c-.2 0-.362-.157-.362-.352V8.352c0-.195.162-.352.362-.352h1.205c.2 0 .362.157.362.352v1.171c0 .195-.162.352-.362.352zm2.29 4.688H6.036v-2.461c0-.195.162-.352.361-.352h1.206c.2 0 .361.157.361.352v2.46zm1.929-5.04c0 .195-.162.352-.362.352H8.326c-.2 0-.362-.157-.362-.352V8.352c0-.195.162-.352.362-.352H9.53c.2 0 .362.157.362.352v1.171zm0-2.812c0 .194-.162.351-.362.351H8.326c-.2 0-.362-.157-.362-.351V5.539c0-.194.162-.351.362-.351H9.53c.2 0 .362.157.362.351v1.172zm0-2.813c0 .195-.162.352-.362.352H8.326c-.2 0-.362-.157-.362-.352V2.727c0-.195.162-.352.362-.352H9.53c.2 0 .362.157.362.352v1.171z"/>
    </g>
</svg>
