<svg xmlns="http://www.w3.org/2000/svg" width="13" height="13" viewBox="0 0 13 13">
    <g fill="none" fill-rule="evenodd">
        <path d="M0 0H13V13H0z"/>
        <path fill="#E42F44" d="M6.706 1.657l.06.044L9.8 4.4h.299c.442 0 .8.358.8.8v4c0 .442-.358.8-.8.8H2.9c-.442 0-.8-.358-.8-.8v-4c0-.442.358-.8.8-.8h.298l3.036-2.699c.133-.118.324-.133.472-.044zM4.1 6c-.193 0-.355.137-.392.32L3.7 6.4V8l.006.072c.034.186.198.328.394.328.193 0 .355-.137.392-.32L4.5 8V6.4l-.006-.072C4.46 6.142 4.296 6 4.1 6zm2.4 0c-.193 0-.355.137-.392.32L6.1 6.4V8l.006.072c.034.186.198.328.394.328.193 0 .355-.137.392-.32L6.9 8V6.4l-.006-.072C6.86 6.142 6.696 6 6.5 6zm2.4 0c-.193 0-.355.137-.392.32L8.5 6.4V8l.006.072c.034.186.198.328.394.328.193 0 .355-.137.392-.32L9.3 8V6.4l-.006-.072C9.26 6.142 9.096 6 8.9 6zM6.5 2.535L4.401 4.4h4.198L6.5 2.535z"/>
    </g>
</svg>
