<svg xmlns="http://www.w3.org/2000/svg" width="18" height="18" viewBox="0 0 18 18">
    <g fill="none" fill-rule="evenodd">
        <path d="M0 0H18V18H0z"/>
        <path fill="#0080C6" d="M9.308 2.485l.09.067 4.554 4.047.848.001c.442 0 .8.358.8.8v6.8c0 .442-.358.8-.8.8H3.2c-.442 0-.8-.358-.8-.8V7.4c0-.442.358-.8.8-.8l.847-.001 4.554-4.047c.2-.177.486-.2.707-.067zM5.4 9c-.298 0-.546.218-.592.503L4.8 9.6V12l.01.108c.05.28.295.492.59.492.298 0 .546-.218.592-.503L6 12V9.6l-.01-.108C5.94 9.212 5.695 9 5.4 9zM9 9c-.298 0-.546.218-.592.503L8.4 9.6V12l.01.108c.05.28.295.492.59.492.298 0 .546-.218.592-.503L9.6 12V9.6l-.01-.108C9.54 9.212 9.295 9 9 9zm3.6 0c-.298 0-.546.218-.592.503L12 9.6V12l.01.108c.05.28.295.492.59.492.298 0 .546-.218.592-.503L13.2 12V9.6l-.01-.108c-.05-.28-.295-.492-.59-.492zM9 3.803L5.853 6.599h6.293L9 3.803z"/>
    </g>
</svg>
