<svg xmlns="http://www.w3.org/2000/svg" xmlns:xlink="http://www.w3.org/1999/xlink" width="25" height="25" viewBox="0 0 25 25">
    <defs>
        <path id="prefix__a" d="M17.93 13.55c-.712-.684-1.447-1.39-1.447-4.724 0-3.378-2.55-6.188-5.878-6.704.153-.217.235-.474.234-.737 0-.719-.6-1.302-1.339-1.302-.74 0-1.34.583-1.34 1.302 0 .263.082.52.235.737-3.327.516-5.878 3.326-5.878 6.704 0 3.334-.735 4.04-1.446 4.723-2.013 1.933-.539 4.764 1.855 4.764H6.82c0 1.438 1.2 2.604 2.679 2.604 1.48 0 2.679-1.166 2.679-2.605h3.895c2.394 0 3.868-2.83 1.855-4.763zM9.5 19.29c-.554 0-1.004-.439-1.004-.977h2.008c0 .538-.45.976-1.004.976zm6.575-2.93H2.925c-.702 0-1.052-.83-.558-1.31 1.196-1.164 2.159-2.268 2.159-6.224 0-2.667 2.231-4.836 4.974-4.836 2.743 0 4.974 2.17 4.974 4.836 0 3.973.972 5.069 2.159 6.224.496.482.14 1.31-.558 1.31z"/>
    </defs>
    <g fill="none" fill-rule="evenodd" opacity=".3" transform="translate(3 2)">
        <mask id="prefix__b" fill="#fff">
            <use xlink:href="#prefix__a"/>
        </mask>
        <g fill="#8B919C" mask="url(#prefix__b)">
            <path d="M0 0H25V25H0z" transform="translate(-3 -2)"/>
        </g>
    </g>
</svg>
