<svg xmlns="http://www.w3.org/2000/svg" width="26" height="26" viewBox="0 0 26 26">
    <g fill="none" fill-rule="evenodd">
        <path d="M0 0H26V26H0z"/>
        <path fill="#8b919c" fill-rule="nonzero" d="M15.41 11.188c-1.231 0-2.228-1.005-2.228-2.246V5.948h-2.97c-.82 0-1.485.67-1.485 1.497v9.73c0 .828.665 1.498 1.485 1.498h6.682c.82 0 1.485-.67 1.485-1.497v-5.988h-2.97zm-1.486-2.246c0 .827.665 1.497 1.485 1.497h2.662l-4.147-4.18v2.683zM10.212 5.2h3.712l5.197 5.24v6.736c0 1.24-.997 2.245-2.227 2.245h-6.682c-1.23 0-2.227-1.005-2.227-2.245v-9.73c0-1.24.997-2.246 2.227-2.246zm0 15.718c-2.05 0-3.712-1.675-3.712-3.742V8.194h.742v8.982c0 1.653 1.33 2.994 2.97 2.994h5.94v.748h-5.94z"/>
    </g>
</svg>
