<svg xmlns="http://www.w3.org/2000/svg" width="20" height="20" viewBox="0 0 20 20">
    <path fill="#45474E" d="M14.273 16.667l.135-.007c.088-.01.174-.027.258-.048.669-.171 1.163-.76 1.163-1.466l.004-7.494-.006-.1c-.023-.165-.1-.319-.222-.439L11.96 3.556l-.077-.066c-.135-.101-.301-.157-.474-.157H5.723l-.135.006c-.664.057-1.204.532-1.367 1.145-.033.123-.054.249-.054.38v10.282l.004.12c.062.783.733 1.4 1.552 1.4h8.55zm0-1h-8.55l-.084-.006c-.27-.038-.472-.258-.472-.515V4.864l.002-.031c.003-.024.009-.054.019-.092.062-.235.282-.408.535-.408h5.601l3.51 3.425-.005 7.388-.006.075c-.031.198-.186.366-.405.422-.066.017-.112.024-.145.024zm-3.457-4.65l.09-.091 1.297-1.423c.186-.204.171-.52-.033-.706-.181-.165-.451-.172-.64-.028l-.066.06-.964 1.06V7.5c0-.276-.224-.5-.5-.5-.249 0-.455.181-.493.419L9.5 7.5v2.388L8.536 8.83c-.186-.204-.502-.219-.706-.033-.182.166-.213.434-.087.635l.054.071 1.298 1.424c.246.268.572.404.9.405H10c.294 0 .583-.107.816-.317zm1.017 2.4l.081-.007c.238-.039.42-.245.42-.493 0-.276-.225-.5-.5-.5H8.166l-.081.006c-.238.039-.42.245-.42.494 0 .276.225.5.5.5h3.667z"/>
</svg>
