<svg xmlns="http://www.w3.org/2000/svg" width="18" height="18" viewBox="0 0 18 18">
    <g fill="none" fill-rule="evenodd" transform="matrix(-1 0 0 1 17 3)">
        <path d="M0 0H18V18H0z"/>
        <path fill="#8b919c" d="M12.14 8.734l1.64-1.641c.396-.396.233-1.073-.3-1.245l-.98-.314V2.25c0-.414-.336-.75-.75-.75h-1.5V.562c0-.31-.252-.562-.563-.562H6.313c-.311 0-.563.252-.563.563V1.5h-1.5c-.414 0-.75.336-.75.75v3.284l-.98.314c-.533.172-.697.848-.3 1.245l1.64 1.64C3.45 9.758 2.507 10.5 1.064 10.5c-.311 0-.563.252-.563.563v.374c0 .311.252.563.563.563 1.43 0 2.519-.483 3.357-1.392C4.758 11.424 5.563 12 6.5 12h3c.937 0 1.742-.576 2.08-1.392.838.909 1.927 1.392 3.357 1.392.311 0 .563-.252.563-.563v-.374c0-.311-.252-.563-.563-.563-1.425 0-2.38-.727-2.798-1.766zM5 3h6v2.052L8.23 4.16c-.15-.048-.31-.048-.46 0L5 5.051V3z"/>
    </g>
</svg>
