<svg xmlns="http://www.w3.org/2000/svg" width="60" height="60" viewBox="0 0 60 60">
    <g fill="none" fill-rule="evenodd">
        <path d="M0 0H60V60H0z"/>
        <path fill-rule="nonzero" stroke="#45474E" stroke-linejoin="round" stroke-width="2" d="M32.67 16v1.968c2.284.437 4.203 1.43 6.023 2.914h0l-2.734 4.59c-1.096-.914-2.244-1.652-3.41-2.11h0v3.713c2.134.608 3.678 1.39 4.724 2.379 1.262 1.192 1.867 2.687 1.867 4.616 0 1.965-.757 3.595-2.063 4.796-1.099 1.012-2.605 1.72-4.406 2.033h0V44h-4.643v-3.173c-2.811-.497-5.423-1.797-7.504-3.702h0l3.092-4.446c1.54 1.381 2.936 2.368 4.534 2.884h0v-3.95c-2.101-.614-3.642-1.376-4.687-2.376-1.204-1.153-1.813-2.622-1.813-4.613 0-1.938.752-3.556 2.048-4.747 1.083-.995 2.563-1.694 4.33-1.995h0V16h4.643zm-.12 16.865v2.84c.22-.09.41-.204.568-.344.3-.267.438-.636.438-1.078 0-.39-.076-.716-.36-.986-.167-.159-.381-.3-.647-.432z"/>
    </g>
</svg>
