<svg xmlns="http://www.w3.org/2000/svg" width="60" height="60" viewBox="0 0 60 60">
    <g fill="none" fill-rule="evenodd">
        <path d="M0 0H59.514V60H0z"/>
        <g fill="#45474e" fill-rule="nonzero">
            <path d="M12 0c1.657 0 3 1.343 3 3v9c0 1.657-1.343 3-3 3H3c-1.657 0-3-1.343-3-3V3c0-1.657 1.343-3 3-3h9zm0 2H3c-.513 0-.936.386-.993.883L2 3v9c0 .513.386.936.883.993L3 13h9c.513 0 .936-.386.993-.883L13 12V3c0-.513-.386-.936-.883-.993L12 2zM12 17c1.657 0 3 1.343 3 3v9c0 1.657-1.343 3-3 3H3c-1.657 0-3-1.343-3-3v-9c0-1.657 1.343-3 3-3h9zm0 2H3c-.513 0-.936.386-.993.883L2 20v9c0 .513.386.936.883.993L3 30h9c.513 0 .936-.386.993-.883L13 29v-9c0-.513-.386-.936-.883-.993L12 19zM29 0c1.657 0 3 1.343 3 3v9c0 1.657-1.343 3-3 3h-9c-1.657 0-3-1.343-3-3V3c0-1.657 1.343-3 3-3h9zm0 2h-9c-.513 0-.936.386-.993.883L19 3v9c0 .513.386.936.883.993L20 13h9c.513 0 .936-.386.993-.883L30 12V3c0-.513-.386-.936-.883-.993L29 2zM29 17c1.657 0 3 1.343 3 3v9c0 1.657-1.343 3-3 3h-9c-1.657 0-3-1.343-3-3v-9c0-1.657 1.343-3 3-3h9zm0 2h-9c-.513 0-.936.386-.993.883L19 20v9c0 .513.386.936.883.993L20 30h9c.513 0 .936-.386.993-.883L30 29v-9c0-.513-.386-.936-.883-.993L29 19z" transform="translate(14 14)"/>
        </g>
    </g>
</svg>
