<svg xmlns="http://www.w3.org/2000/svg" width="24" height="25" viewBox="0 0 24 25">
    <g fill="none" fill-rule="evenodd">
        <path d="M0 0H24V24H0z" transform="translate(0 1)"/>
        <path fill="#0080C6" fill-rule="nonzero" d="M17.906 12c.844-.38 1.808.242 1.808 1.19v4.669c0 .514-.299.98-.763 1.19l-3.857 1.735c-.294.132-.625.148-.93.045l-4.669-1.576-3.401 1.53c-.844.38-1.808-.242-1.808-1.19v-4.669c0-.514.299-.98.763-1.19l2.74-1.233c.128.21.263.42.404.627.108.16.219.316.331.469l-2.953 1.327v4.67l3.215-1.446v-4.203c.412.533.846 1.03 1.285 1.486v2.645l3.858 1.301v-3.7c.739-.741 1.469-1.595 2.117-2.547.094-.138.184-.276.272-.415zm.523 1.188l-3.215 1.447v4.67l3.215-1.446v-4.67z" transform="translate(0 1)"/>
        <path fill="#0080C6" fill-rule="nonzero" d="M12.12 3.748c-2.132 0-3.86 1.726-3.86 3.86 0 1.56.695 3.077 1.556 4.34.837 1.236 1.797 2.184 2.304 2.647.507-.463 1.467-1.411 2.304-2.647.861-1.263 1.556-2.78 1.556-4.34 0-2.134-1.728-3.86-3.86-3.86zm-4.963 3.86c0-2.74 2.222-4.963 4.963-4.963s4.963 2.222 4.963 4.963c0 1.875-.827 3.607-1.747 4.963-.924 1.357-1.977 2.388-2.51 2.874-.403.364-1.009.364-1.412 0-.533-.486-1.586-1.517-2.51-2.874-.92-1.356-1.747-3.088-1.747-4.963zm4.963-1.103c-.609 0-1.103.496-1.103 1.103s.494 1.103 1.103 1.103 1.103-.496 1.103-1.103-.494-1.103-1.103-1.103zM9.914 7.608c0-1.219.988-2.206 2.206-2.206s2.206.987 2.206 2.206c0 1.219-.988 2.206-2.206 2.206s-2.206-.987-2.206-2.206z" transform="translate(0 1)"/>
    </g>
</svg>
