<svg xmlns="http://www.w3.org/2000/svg" width="100" height="100" viewBox="0 0 100 100">
    <g fill="none" fill-rule="evenodd">
        <path d="M0 0H100V100H0z"/>
        <g>
            <path fill="#FFF" fill-rule="nonzero" d="M1.237 58.328V33.487H11.48v24.84H1.237zm2.56-21.979v19.117H8.92V36.349H3.798zm26.817 21.979V41.749h10.243v16.579H30.614zm2.56-13.717v10.855h5.122V44.61h-5.121zm12.08 13.717V33.973h10.243v24.355H45.254zm2.561-21.493v18.63h5.122v-18.63h-5.122zM15.829 58.328V26.197h10.243v32.13H15.83zm2.56-29.27v26.408h5.122V29.059H18.39z" transform="translate(22 20.5)"/>
            <g stroke="#FFF" transform="translate(22 20.5) matrix(-1 0 0 1 56 0)">
                <path stroke-linecap="square" stroke-width="3.025" d="M9.246 17.717L17.339 21.617M23.819 20.506L32.841 8.701M39.295 8.085L46.844 13.235"/>
                <circle cx="6.067" cy="15.85" r="3.545" stroke-width="3.63"/>
                <path stroke-width="3.63" d="M20.608 19.532c-.979 0-1.865.397-2.506 1.038-.642.642-1.039 1.528-1.039 2.507 0 .979.397 1.865 1.039 2.507.641.641 1.527 1.038 2.506 1.038.98 0 1.866-.397 2.507-1.038.642-.642 1.039-1.528 1.039-2.507 0-.979-.397-1.865-1.039-2.507-.641-.641-1.528-1.038-2.507-1.038zM35.15 2.012c-.979 0-1.865.396-2.507 1.038-.641.641-1.038 1.528-1.038 2.507 0 .979.397 1.865 1.038 2.507.642.641 1.528 1.038 2.507 1.038.979 0 1.865-.397 2.507-1.038.641-.642 1.038-1.528 1.038-2.507 0-.98-.397-1.866-1.038-2.507-.642-.642-1.528-1.038-2.507-1.038zM49.692 11.5c-.98 0-1.866.397-2.507 1.038-.642.642-1.039 1.528-1.039 2.507 0 .98.397 1.865 1.039 2.507.641.641 1.528 1.038 2.507 1.038.979 0 1.865-.397 2.506-1.038.642-.642 1.039-1.528 1.039-2.507 0-.979-.397-1.865-1.039-2.507-.641-.641-1.527-1.038-2.506-1.038z"/>
            </g>
        </g>
    </g>
</svg>
