<svg xmlns="http://www.w3.org/2000/svg" xmlns:xlink="http://www.w3.org/1999/xlink" width="20" height="20" viewBox="0 0 20 20">
    <defs>
        <path id="prefix__a" d="M11.575 7.958l-.577-.165c.809-1.124.924-2.262.924-2.871C11.922 2.205 9.72 0 7 0 4.283 0 2.078 2.202 2.078 4.922c0 .61.115 1.747.924 2.871l-.577.165C.582 8.484 0 10.16 0 11.173v.702C0 13.047.953 14 2.125 14h9.75C13.047 14 14 13.047 14 11.875v-.702c0-.991-.567-2.684-2.425-3.215zM7 1.312c1.993 0 3.61 1.616 3.61 3.61 0 1.993-1.617 3.61-3.61 3.61-1.993 0-3.61-1.617-3.61-3.61 0-1.994 1.617-3.61 3.61-3.61zm5.688 10.563c0 .449-.364.813-.813.813h-9.75c-.449 0-.813-.364-.813-.813v-.702c0-.907.602-1.704 1.474-1.953l1.26-.36c.402.302 1.434.984 2.954.984 1.52 0 2.552-.682 2.954-.984l1.26.36c.872.249 1.473 1.046 1.473 1.953v.702z"/>
    </defs>
    <g fill="none" fill-rule="evenodd">
        <path d="M0 -1H20V19H0z" transform="translate(0 1)"/>
        <g transform="translate(0 1) translate(3 2)">
            <use fill="#8b919c" fill-rule="nonzero" xlink:href="#prefix__a"/>
        </g>
    </g>
</svg>
