<svg xmlns="http://www.w3.org/2000/svg" width="21" height="21" viewBox="0 0 21 21">
    <g fill="none" fill-rule="evenodd">
        <path d="M0 0H24V24H0z" transform="translate(-2 -1)"/>
        <path fill="#FFF" fill-rule="nonzero" d="M10.8 1.8c4.64 0 8.4 3.76 8.4 8.4 0 1.815-.575 3.495-1.554 4.868l4.388 4.386c.547.547.547 1.434 0 1.98-.527.528-1.37.546-1.92.057l-.06-.057-4.386-4.388c-1.373.979-3.053 1.554-4.868 1.554-4.64 0-8.4-3.76-8.4-8.4 0-4.64 3.76-8.4 8.4-8.4zm0 2c-3.535 0-6.4 2.865-6.4 6.4s2.865 6.4 6.4 6.4 6.4-2.865 6.4-6.4-2.865-6.4-6.4-6.4z" transform="translate(-2 -1)"/>
    </g>
</svg>
