<svg xmlns="http://www.w3.org/2000/svg" width="60" height="60" viewBox="0 0 60 60">
    <g fill="none" fill-rule="evenodd">
        <path d="M0 0H59.514V60H0z"/>
        <path fill="#45474e" fill-rule="nonzero" d="M35.56 25.818c-2.84 0-5.14-2.32-5.14-5.182v-6.909h-6.854c-1.892 0-3.426 1.547-3.426 3.455v22.454c0 1.908 1.534 3.455 3.426 3.455h15.42c1.893 0 3.427-1.547 3.427-3.455V25.818h-6.854zm-3.427-5.182c0 1.908 1.534 3.455 3.426 3.455h6.144l-9.57-9.648v6.193zM23.566 12h8.567l11.993 12.09v15.546c0 2.862-2.301 5.182-5.14 5.182h-15.42c-2.838 0-5.14-2.32-5.14-5.182V17.182c0-2.862 2.302-5.182 5.14-5.182zm0 36.273c-4.73 0-8.566-3.867-8.566-8.637V18.91h1.713v20.727c0 3.816 3.069 6.91 6.853 6.91h13.707v1.727H23.566z"/>
    </g>
</svg>
