<svg xmlns="http://www.w3.org/2000/svg" xmlns:xlink="http://www.w3.org/1999/xlink" width="40" height="40" viewBox="0 0 40 40">
    <defs>
        <path id="prefix__a" d="M20.838 17.016C19.795 16.002 18.5 14.74 18.5 9.813c0-3.619-2.71-6.62-6.265-7.193.173-.244.265-.532.265-.828 0-.806-.672-1.459-1.5-1.459S9.5.986 9.5 1.792c0 .307.098.592.265.828C6.211 3.192 3.5 6.194 3.5 9.812c0 4.928-1.296 6.19-2.339 7.204C-.252 18.39.75 20.75 2.752 20.75H8c0 1.61 1.343 2.917 3 2.917s3-1.306 3-2.917h5.247c1.999 0 3.007-2.358 1.591-3.734zM11 21.844c.207 0 .375.163.375.364 0 .202-.168.365-.375.365-1.034 0-1.875-.818-1.875-1.823h.75c0 .603.505 1.094 1.125 1.094z"/>
    </defs>
    <g fill="none" fill-rule="evenodd">
        <path d="M0 0H40V40H0z"/>
        <g transform="translate(9 8)">
            <mask id="prefix__b" fill="#fff">
                <use xlink:href="#prefix__a"/>
            </mask>
            <use fill="#000" fill-rule="nonzero" xlink:href="#prefix__a"/>
            <g fill="#273142" mask="url(#prefix__b)">
                <path d="M0 0H28V28H0z" transform="translate(-3 -2)"/>
            </g>
        </g>
    </g>
</svg>
