<svg xmlns="http://www.w3.org/2000/svg" width="100" height="100" viewBox="0 0 100 100">
    <g fill="none" fill-rule="evenodd">
        <path d="M0 0H100V100H0z"/>
        <g transform="translate(21 31)">
            <path fill="#FFF" fill-rule="nonzero" d="M3 1.833V43h54c.552 0 1 .448 1 1v1c0 .552-.448 1-1 1H1.5c-.78 0-1.42-.595-1.493-1.356L0 44.5V1.833c0-.552.448-1 1-1h1c.552 0 1 .448 1 1z"/>
            <path stroke="#FFF" stroke-linecap="square" stroke-width="2.5" d="M15.474 22.198L22.152 25.417M27.5 24.5L34.945 14.758M40.271 14.25L46.5 18.5"/>
            <circle cx="12.85" cy="20.657" r="2.923" stroke="#FFF" stroke-width="3"/>
            <path stroke="#FFF" stroke-width="3" d="M24.85 23.698c-.807 0-1.538.327-2.067.856-.529.53-.856 1.26-.856 2.067 0 .808.327 1.538.856 2.067.53.53 1.26.857 2.067.857.808 0 1.538-.328 2.067-.857.53-.529.857-1.26.857-2.067 0-.807-.328-1.538-.857-2.067-.529-.529-1.26-.856-2.067-.856zM36.85 9.24c-.807 0-1.538.327-2.067.856-.529.53-.856 1.26-.856 2.067 0 .808.327 1.538.856 2.068.53.529 1.26.856 2.067.856.808 0 1.538-.327 2.067-.856.53-.53.857-1.26.857-2.068 0-.807-.328-1.538-.857-2.067-.529-.529-1.26-.856-2.067-.856zM48.85 17.07c-.807 0-1.538.327-2.067.856-.529.53-.856 1.26-.856 2.067 0 .808.327 1.538.856 2.067.53.53 1.26.857 2.067.857.808 0 1.538-.328 2.067-.857.53-.529.857-1.26.857-2.067 0-.807-.328-1.538-.857-2.067-.529-.529-1.26-.856-2.067-.856z"/>
        </g>
    </g>
</svg>
