<svg xmlns="http://www.w3.org/2000/svg" xmlns:xlink="http://www.w3.org/1999/xlink" width="18" height="18" viewBox="0 0 18 18">
    <defs>
        <path id="prefix__a" d="M14.375 0h-7.5C6.254 0 5.75.504 5.75 1.125V2.25H4.716c-.298 0-.585.119-.796.33L1.58 4.92c-.211.211-.33.498-.33.796V8.25h-.188c-.31 0-.562.252-.562.563v.374c0 .311.252.563.563.563H2C2 10.993 3.007 12 4.25 12S6.5 10.993 6.5 9.75h3c0 1.243 1.007 2.25 2.25 2.25S14 10.993 14 9.75h.938c.31 0 .562-.252.562-.563V1.126C15.5.504 14.996 0 14.375 0zM4.25 10.875c-.62 0-1.125-.505-1.125-1.125S3.63 8.625 4.25 8.625s1.125.505 1.125 1.125-.505 1.125-1.125 1.125zM5.75 6H2.375v-.284l2.341-2.341H5.75V6zm6 4.875c-.62 0-1.125-.505-1.125-1.125s.505-1.125 1.125-1.125 1.125.505 1.125 1.125-.505 1.125-1.125 1.125z"/>
    </defs>
    <g fill="none" fill-rule="evenodd">
        <path d="M0 0H18V18H0z"/>
        <g transform="matrix(-1 0 0 1 17 3)">
            <mask id="prefix__b" fill="#fff">
                <use xlink:href="#prefix__a"/>
            </mask>
            <use fill="#000" fill-rule="nonzero" xlink:href="#prefix__a"/>
            <g fill="#0080C6" mask="url(#prefix__b)">
                <path d="M0 0H18V18H0z" transform="translate(-1 -3)"/>
            </g>
        </g>
    </g>
</svg>
