<svg xmlns="http://www.w3.org/2000/svg" width="24" height="25" viewBox="0 0 24 25">
    <g fill="none" fill-rule="evenodd">
        <path d="M0 0H24V24H0z" transform="translate(0 1)"/>
        <path fill="#0080C6" d="M17.651 20.816l.178-.01c.117-.011.23-.034.342-.062.884-.226 1.538-1.004 1.538-1.938l.005-9.912-.009-.132c-.03-.217-.131-.421-.292-.58L14.59 3.479l-.102-.087c-.178-.134-.398-.207-.627-.207H6.344l-.178.007c-.879.076-1.593.703-1.808 1.515-.043.162-.072.328-.072.502v13.598l.006.157c.082 1.036.969 1.853 2.052 1.853H17.65zm0-1.322H6.344l-.11-.008c-.36-.05-.626-.341-.626-.68V5.208l.003-.042c.004-.031.012-.07.025-.121.082-.31.374-.539.708-.539h7.407l4.64 4.528-.004 9.771-.008.1c-.042.262-.247.484-.536.558-.087.022-.148.03-.192.03zm-4.572-6.15l.12-.12 1.714-1.88c.246-.27.227-.689-.043-.935-.24-.218-.597-.227-.846-.037l-.088.08-1.275 1.4V8.694c0-.365-.296-.661-.661-.661-.329 0-.601.24-.653.554l-.008.107v3.158l-1.275-1.399c-.246-.27-.664-.289-.934-.042-.24.218-.282.573-.115.839l.072.095 1.717 1.882c.616.674 1.614.713 2.275.117zm1.345 3.174l.108-.008c.314-.052.554-.324.554-.653 0-.365-.296-.661-.662-.661H9.576l-.108.009c-.314.05-.554.323-.554.652 0 .365.296.661.662.661h4.848z" transform="translate(0 1)"/>
    </g>
</svg>
