<svg xmlns="http://www.w3.org/2000/svg" width="20" height="20" viewBox="0 0 20 20">
    <g fill="none" fill-rule="evenodd">
        <path d="M0 0H20V20H0z"/>
        <path fill="#FFF" fill-rule="nonzero" d="M15.77 2.667H7.355c-.863 0-1.562.7-1.562 1.562v1.563H4.229c-.863 0-1.562.7-1.562 1.562v8.417c0 .863.7 1.562 1.562 1.562h8.417c.863 0 1.562-.7 1.562-1.562v-1.563h1.563c.863 0 1.562-.7 1.562-1.562V4.229c0-.863-.7-1.562-1.562-1.562zM12.45 15.77H4.425c-.107 0-.195-.088-.195-.195V7.549c0-.107.088-.195.195-.195h1.368v5.292c0 .863.7 1.562 1.562 1.562h5.292v1.368c0 .107-.088.195-.195.195zm3.126-3.125H7.549c-.107 0-.195-.088-.195-.195V4.424c0-.107.088-.195.195-.195h8.027c.107 0 .195.088.195.195v8.027c0 .107-.088.195-.195.195z"/>
    </g>
</svg>
