<svg xmlns="http://www.w3.org/2000/svg" width="16" height="16" viewBox="0 0 16 16">
    <g fill="none" fill-rule="evenodd">
        <circle cx="8" cy="8" r="8" fill="#DDE2EA"/>
        <path fill="#8B919C" d="M11.536 4.464c.195.196.195.512 0 .708l-2.83 2.827 2.83 2.83c.195.195.195.511 0 .707-.196.195-.512.195-.708 0L8 8.706l-2.827 2.83c-.196.195-.512.195-.708 0-.195-.196-.195-.512 0-.708L7.292 8 4.464 5.172c-.195-.196-.195-.512 0-.708.196-.195.512-.195.708 0l2.827 2.828 2.83-2.828c.195-.195.511-.195.707 0z"/>
    </g>
</svg>
