<svg xmlns="http://www.w3.org/2000/svg" width="40" height="40" viewBox="0 0 40 40">
    <g fill="none" fill-rule="evenodd">
        <path d="M0 0H40V40H0z"/>
        <path fill="#8B919C" fill-rule="nonzero" d="M20 29c.828 0 1.5.672 1.5 1.5v1c0 .828-.672 1.5-1.5 1.5s-1.5-.672-1.5-1.5v-1c0-.828.672-1.5 1.5-1.5zm-6.364-2.636c.586.586.586 1.535 0 2.121l-.707.707c-.586.586-1.536.586-2.121 0-.586-.585-.586-1.535 0-2.12l.707-.708c.586-.586 1.535-.586 2.121 0zm14.85 0l.706.707c.586.586.586 1.536 0 2.121-.585.586-1.535.586-2.12 0l-.708-.707c-.586-.586-.586-1.535 0-2.121.586-.586 1.535-.586 2.121 0zM20 13c3.866 0 7 3.134 7 7s-3.134 7-7 7-7-3.134-7-7 3.134-7 7-7zM9.5 18.5c.828 0 1.5.672 1.5 1.5s-.672 1.5-1.5 1.5h-1c-.828 0-1.5-.672-1.5-1.5s.672-1.5 1.5-1.5h1zm22 0c.828 0 1.5.672 1.5 1.5s-.672 1.5-1.5 1.5h-1c-.828 0-1.5-.672-1.5-1.5s.672-1.5 1.5-1.5h1zm-2.308-7.692c.586.585.586 1.535 0 2.12l-.707.708c-.586.586-1.535.586-2.121 0-.586-.586-.586-1.535 0-2.121l.707-.707c.586-.586 1.536-.586 2.121 0zm-16.263 0l.707.707c.586.586.586 1.535 0 2.121-.586.586-1.535.586-2.121 0l-.707-.707c-.586-.586-.586-1.536 0-2.121.585-.586 1.535-.586 2.12 0zM20 7c.828 0 1.5.672 1.5 1.5v1c0 .828-.672 1.5-1.5 1.5s-1.5-.672-1.5-1.5v-1c0-.828.672-1.5 1.5-1.5z"/>
    </g>
</svg>
