<svg xmlns="http://www.w3.org/2000/svg" width="100" height="100" viewBox="0 0 100 100">
    <g fill="none" fill-rule="evenodd">
        <path d="M0 0H100V100H0z"/>
        <path fill="#FFF" fill-rule="nonzero" d="M25.872 68.114c0 3.15 2.388 5.702 5.333 5.702h18.037c-1.266-1.513-2.037-3.511-2.037-5.702H25.872zm29.333 5.702c2.946 0 5.333-2.553 5.333-5.702V31.053c0-2.19.77-4.189 2.038-5.702h-23.37c-2.946 0-5.334 2.553-5.334 5.702v34.21h16v2.851c0 3.15 2.388 5.702 5.333 5.702zm-24-42.763c0-4.724 3.582-8.553 8-8.553h29.333c4.419 0 8 3.83 8 8.553v5.701H63.205v31.36c0 4.724-3.582 8.553-8 8.553h-24c-4.418 0-8-3.83-8-8.553v-2.85h8V31.052zm42.667 2.85v-2.85c0-3.15-2.388-5.702-5.334-5.702-2.945 0-5.333 2.553-5.333 5.702v2.85h10.667z"/>
    </g>
</svg>
