<svg xmlns="http://www.w3.org/2000/svg" xmlns:xlink="http://www.w3.org/1999/xlink" width="24" height="24" viewBox="0 0 24 24">
    <defs>
        <path id="prefix__a" d="M20.092 14.927c-.683-.655-1.388-1.333-1.388-4.534 0-3.243-2.45-5.94-5.644-6.436.147-.208.226-.455.226-.707C13.286 2.56 12.71 2 12 2c-.71 0-1.286.56-1.286 1.25 0 .252.079.499.226.707-3.195.495-5.644 3.193-5.644 6.436 0 3.2-.705 3.878-1.388 4.534-1.932 1.856-.517 4.573 1.78 4.573h3.74c0 1.38 1.152 2.5 2.572 2.5 1.42 0 2.571-1.12 2.571-2.5h3.74c2.298 0 3.713-2.718 1.781-4.573zM12 20.437c-.532 0-.964-.42-.964-.937h1.928c0 .517-.432.938-.964.938zm6.312-2.812H5.688c-.674 0-1.01-.796-.536-1.257 1.149-1.117 2.073-2.177 2.073-5.975 0-2.56 2.142-4.643 4.775-4.643 2.633 0 4.776 2.083 4.776 4.643 0 3.814.932 4.866 2.071 5.975.477.463.135 1.257-.535 1.257z"/>
    </defs>
    <g fill="none" fill-rule="evenodd">
        <use fill="#EFA558" fill-rule="nonzero" xlink:href="#prefix__a"/>
    </g>
</svg>
