<svg xmlns="http://www.w3.org/2000/svg" xmlns:xlink="http://www.w3.org/1999/xlink" width="18" height="18" viewBox="0 0 18 18">
    <defs>
        <path id="prefix__a" d="M12.792 5.523H9.88L7.167.401C7.11.307 7.009.25 6.901.25H5.396c-.204 0-.354.195-.303.396l.866 4.877h-2.86l-.91-1.533c-.056-.096-.158-.154-.268-.154H.813c-.198 0-.345.183-.307.378L1.056 7l-.55 2.786c-.038.195.11.378.307.378H1.92c.11 0 .212-.058.268-.154l.91-1.533h2.86l-.866 4.877c-.05.2.099.396.303.396h1.505c.108 0 .21-.057.266-.15l2.714-5.123h2.91c1.496 0 2.709-.662 2.709-1.477 0-.815-1.213-1.477-2.708-1.477z"/>
    </defs>
    <g fill="none" fill-rule="evenodd">
        <path d="M0 0H18V18H0z"/>
        <g transform="translate(1 2)">
            <mask id="prefix__b" fill="#fff">
                <use xlink:href="#prefix__a"/>
            </mask>
            <use fill="#000" fill-rule="nonzero" xlink:href="#prefix__a"/>
            <g fill="#0080C6" mask="url(#prefix__b)">
                <path d="M0 0H18V18H0z" transform="translate(-1 -2)"/>
            </g>
        </g>
    </g>
</svg>
