<svg xmlns="http://www.w3.org/2000/svg" xmlns:xlink="http://www.w3.org/1999/xlink" width="24" height="24" viewBox="0 0 24 24">
    <defs>
        <path id="prefix__a" d="M17.433 14.3c-.894-.87-2.004-1.952-2.004-6.175 0-3.101-2.324-5.675-5.37-6.165.148-.209.227-.456.227-.71C10.286.56 9.71 0 9 0c-.71 0-1.286.56-1.286 1.25 0 .264.084.508.228.71-3.047.49-5.37 3.064-5.37 6.165 0 4.223-1.111 5.305-2.005 6.174C-.645 15.477.214 17.5 1.93 17.5H6.43c0 1.38 1.15 2.5 2.571 2.5 1.42 0 2.571-1.12 2.571-2.5h4.498c1.713 0 2.578-2.02 1.364-3.2zM9 18.436c.178 0 .321.14.321.313s-.143.313-.321.313c-.886 0-1.607-.701-1.607-1.563h.643c0 .517.432.938.964.938z"/>
    </defs>
    <g fill="none" fill-rule="evenodd" transform="translate(3 2)">
        <use fill="#0080C6" xlink:href="#prefix__a"/>
    </g>
</svg>
