<svg xmlns="http://www.w3.org/2000/svg" width="40" height="40" viewBox="0 0 40 40">
    <g fill="none" fill-rule="evenodd">
        <path d="M0 0H40V40H0z"/>
        <path fill="#273142" fill-rule="nonzero" d="M18.265 6.56c6.22 0 11.264 5.043 11.264 11.265 0 2.432-.77 4.684-2.082 6.526l5.883 5.884c.733.733.733 1.922 0 2.655-.707.707-1.837.732-2.575.076l-.08-.076-5.884-5.883c-1.842 1.311-4.094 2.082-6.526 2.082C12.043 29.09 7 24.046 7 17.825 7 11.603 12.043 6.56 18.265 6.56zm0 2.682c-4.74 0-8.583 3.843-8.583 8.583s3.843 8.582 8.583 8.582 8.582-3.842 8.582-8.582-3.842-8.583-8.582-8.583z"/>
    </g>
</svg>
