<svg xmlns="http://www.w3.org/2000/svg" width="101" height="100" viewBox="0 0 101 100">
    <g fill="none" fill-rule="evenodd">
        <path d="M0 0H100V100H0z" transform="translate(.5)"/>
        <g>
            <path fill="#45474E" fill-rule="nonzero" d="M11.96 0h2.991c1.651 0 2.99 1.339 2.99 2.99v2.99h14.951V2.99c0-1.651 1.339-2.99 2.99-2.99h2.99c1.652 0 2.99 1.339 2.99 2.99v2.99c4.955 0 8.971 4.017 8.971 8.971v32.892c0 4.955-4.016 8.97-8.97 8.97H8.97C4.016 56.814 0 52.799 0 47.844V14.951c0-4.954 4.016-8.97 8.97-8.97V2.99C8.97 1.338 10.31 0 11.96 0zm23.922 5.98h2.99V2.99h-2.99v2.99zm-20.931 0V2.99h-2.99v2.99h2.99zm-5.98 2.99c-3.303 0-5.98 2.678-5.98 5.981v2.99h44.852v-2.99c0-3.303-2.677-5.98-5.98-5.98H8.97zM2.99 47.844c0 3.303 2.677 5.98 5.98 5.98h32.892c3.303 0 5.98-2.677 5.98-5.98V20.931H2.99v26.912z" transform="translate(.5) translate(19.5 18.5)"/>
            <g stroke="#45474E">
                <path fill="#FFF" fill-rule="nonzero" stroke-width="3" d="M15.25 1.5c-3.563 0-6.789 1.444-9.124 3.78-2.335 2.334-3.779 5.56-3.779 9.123 0 3.563 1.444 6.788 3.78 9.123 2.334 2.335 5.56 3.78 9.123 3.78 3.563 0 6.789-1.445 9.124-3.78 2.335-2.335 3.779-5.56 3.779-9.123 0-3.563-1.444-6.789-3.78-9.124C22.04 2.944 18.814 1.5 15.25 1.5z" transform="translate(.5) translate(19.5 18.5) translate(30.5 33.889)"/>
                <path stroke-linecap="round" stroke-width="2" d="M14.75 6.815L14.75 14.403 19.15 18.836" transform="translate(.5) translate(19.5 18.5) translate(30.5 33.889)"/>
            </g>
        </g>
    </g>
</svg>
