<svg xmlns="http://www.w3.org/2000/svg" xmlns:xlink="http://www.w3.org/1999/xlink" width="24" height="24" viewBox="0 0 24 24">
    <defs>
        <path id="prefix__a" d="M17.375 11.371l1.664.961c.19.11.279.337.213.546-.432 1.393-1.17 2.65-2.136 3.695-.149.161-.39.198-.58.088l-1.663-.96c-.7.599-1.504 1.064-2.373 1.372v1.92c0 .22-.152.41-.366.459-1.366.306-2.832.322-4.267 0-.214-.048-.367-.238-.367-.458v-1.921c-.869-.308-1.674-.773-2.373-1.373l-1.664.961c-.19.11-.43.073-.58-.088-.965-1.045-1.703-2.302-2.135-3.695-.066-.21.023-.436.213-.546l1.664-.96c-.167-.907-.167-1.837 0-2.743L.961 7.668c-.19-.11-.279-.337-.213-.546.432-1.393 1.17-2.65 2.136-3.695.149-.161.39-.198.58-.088l1.663.96C5.827 3.7 6.63 3.236 7.5 2.928v-1.92c0-.22.152-.41.366-.459 1.366-.306 2.832-.322 4.267 0 .214.048.367.238.367.458v1.921c.869.308 1.674.773 2.373 1.373l1.664-.961c.19-.11.43-.073.58.088.965 1.045 1.703 2.302 2.136 3.695.065.21-.024.436-.214.546l-1.664.96c.167.907.167 1.837 0 2.743zM13.125 10c0-1.723-1.402-3.125-3.125-3.125S6.875 8.277 6.875 10 8.277 13.125 10 13.125s3.125-1.402 3.125-3.125z"/>
    </defs>
    <g fill="none" fill-rule="evenodd" opacity=".3" transform="translate(2 2)">
        <mask id="prefix__b" fill="#fff">
            <use xlink:href="#prefix__a"/>
        </mask>
        <use fill="#000" fill-rule="nonzero" xlink:href="#prefix__a"/>
        <g fill="#8B919C" mask="url(#prefix__b)">
            <path d="M0 0H24V24H0z" transform="translate(-2 -2)"/>
        </g>
    </g>
</svg>
