<svg xmlns="http://www.w3.org/2000/svg" width="183" height="64" viewBox="0 0 183 64">
    <g fill="none">
        <g fill="#FFF">
            <path d="M5.298 16.222c-.457 0-1.205.064-1.594.738V.443H2.258C.836.443.049 1.127.044 2.417v16.704h9.14c1.294-.005 2.194-.664 2.194-1.905v-.994h-6.08z" transform="translate(78.71 26.585)"/>
            <g>
                <path d="M60.995.906h-9.44c-1.018 0-1.732.605-1.737 1.575v1.595h3.99v11.51h1.397c1.112-.01 1.732-.55 1.732-1.57v-9.94h2.312c1.018 0 1.731-.605 1.746-1.57v-1.6M43.63.473c-2.258 0-4.659 1.462-4.659 4.174 0 2.3 1.697 3.338 3.355 4.052l1.432.645c1.441.6 1.972 1.157 1.972 2.048 0 1.093-.84 1.92-1.967 1.92h-.202c-.674 0-1.437-.06-1.924-.778l-.044-.059c-.167-.231-.816-1.177-2.086-1.236l-.974.202.06.542c.32 2.383 2.38 4.047 5.027 4.047 2.937 0 5.077-1.95 5.077-4.638 0-2.91-2.17-4.096-3.793-4.736l-1.466-.625c-1.348-.522-1.5-1.034-1.5-1.379 0-.787.855-1.314 1.657-1.314.482 0 .837.074 1.137.31l.014.01c.099.093.645.423 1.427.423.276 0 .58-.04.91-.147l.93-.522-.305-.542C46.838 1.32 45.39.473 43.63.473M87.55.473c-2.258 0-4.659 1.462-4.659 4.174 0 2.3 1.697 3.338 3.355 4.052l1.432.645c1.441.6 1.972 1.157 1.972 2.048 0 1.093-.84 1.92-1.967 1.92h-.202c-.674 0-1.437-.06-1.924-.778l-.044-.059c-.167-.231-.816-1.177-2.086-1.236l-.974.202.06.542c.32 2.383 2.38 4.047 5.027 4.047 2.937 0 5.077-1.95 5.077-4.638 0-2.91-2.17-4.096-3.793-4.736l-1.466-.625c-1.348-.522-1.5-1.034-1.5-1.379 0-.787.855-1.314 1.657-1.314.482 0 .837.074 1.137.31l.014.01c.094.093.645.423 1.427.423.276 0 .58-.04.91-.147l.93-.522-.305-.542C90.758 1.32 89.31.473 87.55.473M7.989 12.933c-2.671 0-4.378-1.915-4.378-4.647 0-2.925 1.85-4.732 4.378-4.732 2.524 0 4.349 2.004 4.349 4.732 0 2.929-1.678 4.647-4.349 4.647M8.023.443C3.301.443.36 4.268.36 8.286c0 4.036 3.139 7.768 7.655 7.768 4.52 0 7.575-3.608 7.575-7.768-.004-3.85-2.848-7.843-7.566-7.843M37.033.906h-1.52c-1.014 0-1.722.733-1.727 1.703v12.977h1.52c.561 0 .989-.132 1.28-.393.29-.256.447-.645.447-1.152V.906M65.683.906h-1.52c-1.013 0-1.722.733-1.727 1.703v12.977h1.52c.561 0 .99-.132 1.28-.393.29-.256.447-.645.447-1.152V.906M24.798 16.005c2.49-.005 4.443-.822 5.987-3.195.9-1.393 1.048-3.456 1.048-4.633 0-.453-.02-.773-.034-.876h-3.96c-.546 0-1.107.138-1.53.404-.423.265-.709.654-.709 1.161V9.93h3.232v.064c0 .315-.054 1.088-.59 1.782-.536.694-1.555 1.31-3.458 1.31-1.151 0-2.268-.394-3.104-1.216-.832-.823-1.378-2.068-1.378-3.767 0-1.245.404-2.422 1.151-3.283.743-.857 1.865-1.413 3.237-1.418 1.21 0 1.81.266 2.258.536.453.266.738.527 1.343.527.61 0 1.097-.246 1.447-.507.33-.246.536-.502.639-.605C29.068 1.477 27.179.497 24.71.487c-4.644.01-7.664 3.22-7.67 7.616.015 4.397 3.124 7.892 7.758 7.902zM75.532.468c-4.374 0-7.561 3.456-7.561 7.827 0 4.372 3.187 7.725 7.56 7.725 2.426 0 4.723-1.088 6.234-2.989-.158-.152-.576-1.053-1.988-1.053-1.323 0-1.623 1.33-4.245 1.33-2.573 0-4.708-2.182-4.708-5.018 0-2.835 2.13-5.12 4.708-5.12 2.341 0 2.902 1.394 4.107 1.394 1.21 0 1.91-.965 2.076-1.118-1.52-1.885-3.758-2.978-6.183-2.978" transform="translate(78.71 26.585) translate(11.315)"/>
            </g>
        </g>
        <path fill="#E02636" d="M51.127 48.783c-1.082-8.173-5.102-14.838-9.21-14.868-4.107 0-10.113 6.67-13.611 14.883-3.498 8.211.462 14.867 9.258 14.867 8.855-.093 14.645-6.695 13.563-14.882"/>
        <path fill="#FFF" d="M9.18 27.028c-5.254 0-9.087 4.155-9.087 9.413 0 5.257 3.833 9.29 9.087 9.29 2.922 0 5.681-1.31 7.506-3.594-.196-.187-.703-1.26-2.395-1.26-1.594 0-1.958 1.6-5.111 1.6-3.09 0-5.658-2.625-5.658-6.031 0-3.412 2.563-6.154 5.658-6.154 2.818 0 3.492 1.678 4.943 1.678 1.452 0 2.298-1.161 2.495-1.344-1.82-2.284-4.516-3.598-7.438-3.598M27.71 27.574h-7.383c-1.25 0-2.12.748-2.12 1.94v1.093h3.29s.124 11.13-.014 12.332v.005c-.044.916-.443 3.116-2.558 4.11-1.737.818-1.756 1.596-1.845 2.802.025.089.059.143.113.143h.01c.01 0 .015 0 .02-.005.064-.015 1.726-.424 1.967-.527l-.005-.005c1.56-.487 3.95-1.556 5.087-3.77 0 0 1.068-1.645 1.048-5.17v-9.92h.157c1.25 0 2.248-.748 2.248-1.945v-1.083"/>
        <path fill="#EA8B00" d="M65.796 21.72c-7.703-3.032-15.486-2.712-17.473.877-1.938 3.643.934 12.066 6.42 19.106 5.475 7.04 13.213 6.804 17.478-.896 4.22-7.675 1.26-16.064-6.425-19.086"/>
        <path fill="#007AC3" d="M26.628 24.177c6.838 4.672 14.493 6.085 17.203 3.053 2.736-3.053 1.791-11.978-1.982-20.067C38.076-.92 30.475-2.417 24.607 4.14c-5.795 6.548-4.797 15.38 2.021 20.037"/>
    </g>
</svg>
