<svg xmlns="http://www.w3.org/2000/svg" width="261" height="91" viewBox="0 0 261 91">
    <g fill="#AAB0B9">
        <g>
            <path d="M7.527 23.065c-.65 0-1.712.091-2.264 1.05V.63H3.208C1.188.63.07 1.603.063 3.437v23.751h12.986c1.838-.007 3.117-.945 3.117-2.709v-1.414H7.527z" transform="translate(111.828 37.8)"/>
            <g>
                <path d="M86.66 1.288H73.247c-1.446 0-2.46.861-2.467 2.24v2.268h5.668v16.366h1.985c1.58-.014 2.46-.784 2.46-2.233V5.796h3.285c1.447 0 2.46-.861 2.482-2.233V1.288M61.988.672c-3.208 0-6.62 2.079-6.62 5.936 0 3.269 2.412 4.746 4.767 5.761l2.034.917c2.048.854 2.803 1.645 2.803 2.912 0 1.554-1.195 2.73-2.796 2.73h-.286c-.958 0-2.041-.084-2.733-1.106l-.063-.084c-.238-.329-1.16-1.673-2.963-1.757l-1.384.287.084.77c.454 3.388 3.382 5.754 7.143 5.754 4.172 0 7.213-2.772 7.213-6.594 0-4.137-3.083-5.824-5.39-6.734l-2.082-.889c-1.915-.742-2.132-1.47-2.132-1.96 0-1.12 1.216-1.869 2.356-1.869.685 0 1.188.105 1.614.441l.021.014c.14.133.916.602 2.027.602.391 0 .825-.056 1.293-.21l1.321-.742-.433-.77C66.545 1.876 64.49.672 61.988.672M124.388.672c-3.208 0-6.62 2.079-6.62 5.936 0 3.269 2.412 4.746 4.767 5.761l2.034.917c2.048.854 2.803 1.645 2.803 2.912 0 1.554-1.195 2.73-2.796 2.73h-.286c-.958 0-2.041-.084-2.733-1.106l-.063-.084c-.238-.329-1.16-1.673-2.963-1.757l-1.384.287.084.77c.454 3.388 3.382 5.754 7.143 5.754 4.172 0 7.213-2.772 7.213-6.594 0-4.137-3.083-5.824-5.39-6.734l-2.082-.889c-1.915-.742-2.132-1.47-2.132-1.96 0-1.12 1.216-1.869 2.356-1.869.685 0 1.188.105 1.614.441l.021.014c.133.133.916.602 2.027.602.391 0 .825-.056 1.293-.21l1.321-.742-.433-.77c-1.237-2.205-3.292-3.409-5.794-3.409M11.35 18.389c-3.795 0-6.22-2.723-6.22-6.608 0-4.158 2.628-6.727 6.22-6.727 3.586 0 6.179 2.849 6.179 6.727 0 4.165-2.383 6.608-6.178 6.608M11.399.63C4.69.63.51 6.069.51 11.781c0 5.74 4.46 11.046 10.875 11.046 6.424 0 10.764-5.131 10.764-11.046C22.142 6.307 18.102.63 11.399.63M52.615 1.288h-2.16c-1.44 0-2.446 1.043-2.453 2.422v18.452h2.16c.797 0 1.405-.189 1.817-.56.412-.364.636-.917.636-1.638V1.288M93.32 1.288h-2.16c-1.439 0-2.445 1.043-2.452 2.422v18.452h2.16c.796 0 1.404-.189 1.816-.56.413-.364.636-.917.636-1.638V1.288M35.233 22.757c3.536-.007 6.311-1.169 8.506-4.543 1.279-1.981 1.488-4.914 1.488-6.587 0-.644-.028-1.099-.049-1.246h-5.626c-.776 0-1.572.196-2.174.574-.6.378-1.006.931-1.006 1.652v1.512h4.592v.091c0 .448-.077 1.547-.839 2.534-.762.987-2.208 1.862-4.913 1.862-1.636 0-3.222-.56-4.41-1.729-1.182-1.169-1.957-2.94-1.957-5.355 0-1.771.573-3.444 1.635-4.669 1.055-1.218 2.649-2.009 4.599-2.016 1.72 0 2.572.378 3.208.763.643.378 1.048.749 1.908.749.867 0 1.559-.35 2.055-.721.468-.35.762-.714.909-.861C41.299 2.1 38.616.707 35.107.693c-6.598.014-10.89 4.578-10.896 10.829.02 6.251 4.438 11.221 11.022 11.235zM107.313.665c-6.214 0-10.743 4.914-10.743 11.13 0 6.216 4.53 10.983 10.743 10.983 3.446 0 6.71-1.547 8.855-4.249-.223-.217-.817-1.498-2.823-1.498-1.88 0-2.307 1.89-6.032 1.89-3.655 0-6.689-3.101-6.689-7.133s3.027-7.28 6.689-7.28c3.327 0 4.124 1.981 5.836 1.981 1.72 0 2.712-1.372 2.95-1.589-2.16-2.681-5.34-4.235-8.786-4.235" transform="translate(111.828 37.8) translate(16.075)"/>
            </g>
        </g>
        <path d="M72.64 69.363c-1.538-11.62-7.249-21.098-13.085-21.14-5.836 0-14.37 9.485-19.339 21.161-4.97 11.676.657 21.14 13.154 21.14 12.58-.133 20.807-9.52 19.27-21.161M13.042 38.43c-7.465 0-12.91 5.908-12.91 13.384s5.445 13.209 12.91 13.209c4.152 0 8.073-1.862 10.666-5.11-.28-.266-1-1.792-3.404-1.792-2.265 0-2.782 2.275-7.262 2.275-4.39 0-8.038-3.731-8.038-8.575 0-4.851 3.642-8.75 8.038-8.75 4.005 0 4.962 2.387 7.024 2.387 2.062 0 3.264-1.652 3.544-1.911-2.586-3.248-6.416-5.117-10.568-5.117M39.37 39.207H28.88c-1.776 0-3.013 1.064-3.013 2.758v1.554h4.676s.175 15.827-.021 17.535v.007c-.063 1.302-.629 4.431-3.634 5.845-2.468 1.162-2.496 2.268-2.621 3.983.035.126.084.203.16.203h.014c.014 0 .021 0 .028-.007.091-.021 2.454-.602 2.796-.749l-.007-.007c2.216-.693 5.612-2.212 7.227-5.362 0 0 1.517-2.338 1.489-7.35V43.512h.223c1.776 0 3.194-1.064 3.194-2.765v-1.54M93.481 30.884c-10.945-4.312-22.002-3.857-24.826 1.246-2.753 5.18 1.328 17.157 9.121 27.167 7.78 10.01 18.773 9.674 24.833-1.274 5.997-10.913 1.79-22.841-9.128-27.139M37.833 34.377c9.715 6.643 20.59 8.652 24.441 4.34 3.886-4.34 2.544-17.031-2.816-28.532C54.097-1.309 43.298-3.437 34.96 5.887c-8.233 9.31-6.814 21.868 2.873 28.49"/>
    </g>
</svg>
