<svg xmlns="http://www.w3.org/2000/svg" width="115" height="40" viewBox="0 0 115 40">
    <g fill="none">
        <g fill="#FFF">
            <path d="M3.316 10.138c-.286 0-.754.04-.997.462V.277h-.906C.523.277.031.705.028 1.51v10.44h5.72c.81-.003 1.374-.416 1.374-1.191v-.622H3.316z" transform="translate(49.267 16.615)"/>
            <g>
                <path d="M38.179.566h-5.91c-.637 0-1.083.379-1.086.985v.997h2.497v7.194h.875c.695-.007 1.083-.345 1.083-.982V2.548h1.448c.637 0 1.084-.379 1.093-.982v-1M27.31.295c-1.414 0-2.917.914-2.917 2.61 0 1.437 1.063 2.086 2.1 2.532l.896.403c.902.375 1.235.723 1.235 1.28 0 .683-.526 1.2-1.232 1.2h-.126c-.422 0-.899-.037-1.204-.486l-.028-.037c-.104-.145-.51-.735-1.305-.772l-.61.126.037.338c.2 1.49 1.49 2.53 3.147 2.53 1.838 0 3.178-1.219 3.178-2.899 0-1.818-1.358-2.56-2.374-2.96l-.918-.39c-.844-.327-.939-.647-.939-.862 0-.493.536-.822 1.038-.822.301 0 .523.046.711.194l.01.006c.06.059.403.265.892.265.173 0 .364-.025.57-.093l.582-.326-.191-.338c-.545-.97-1.45-1.499-2.553-1.499M54.8.295c-1.413 0-2.916.914-2.916 2.61 0 1.437 1.062 2.086 2.1 2.532l.896.403c.902.375 1.235.723 1.235 1.28 0 .683-.527 1.2-1.232 1.2h-.126c-.422 0-.9-.037-1.204-.486l-.028-.037c-.104-.145-.51-.735-1.305-.772l-.61.126.037.338c.2 1.49 1.49 2.53 3.147 2.53 1.838 0 3.178-1.219 3.178-2.899 0-1.818-1.358-2.56-2.374-2.96l-.918-.39c-.844-.327-.94-.647-.94-.862 0-.493.537-.822 1.039-.822.301 0 .523.046.71.194l.01.006c.059.059.403.265.893.265.173 0 .363-.025.57-.093l.582-.326-.191-.338C56.808.824 55.903.295 54.8.295M5 8.083c-1.671 0-2.74-1.197-2.74-2.905 0-1.827 1.158-2.956 2.74-2.956 1.58 0 2.723 1.252 2.723 2.956 0 1.831-1.05 2.905-2.722 2.905M5.022.277C2.066.277.225 2.667.225 5.178c0 2.524 1.964 4.856 4.791 4.856 2.83 0 4.742-2.256 4.742-4.856C9.755 2.772 7.975.277 5.022.277M23.18.566h-.951c-.635 0-1.078.459-1.081 1.065v8.11h.951c.351 0 .62-.083.8-.246.183-.16.281-.403.281-.72V.566M41.113.566h-.951c-.635 0-1.078.459-1.081 1.065v8.11h.951c.351 0 .62-.083.801-.246.182-.16.28-.403.28-.72V.566M15.522 10.003c1.558-.003 2.78-.514 3.748-1.997.563-.87.655-2.16.655-2.895 0-.283-.012-.483-.021-.548h-2.479c-.342 0-.693.086-.958.252-.264.167-.443.41-.443.727v.664h2.023v.04c0 .197-.034.68-.37 1.114-.335.434-.972.818-2.164.818-.72 0-1.42-.246-1.943-.76-.52-.513-.862-1.292-.862-2.353 0-.779.252-1.514.72-2.053.465-.535 1.167-.883 2.026-.886.758 0 1.134.166 1.414.336.283.166.462.329.84.329.382 0 .687-.154.906-.317.206-.154.335-.314.4-.379-.82-1.172-2.002-1.784-3.547-1.79-2.907.006-4.798 2.012-4.8 4.76.009 2.747 1.955 4.932 4.855 4.938zM47.278.292c-2.738 0-4.733 2.16-4.733 4.893 0 2.732 1.995 4.827 4.733 4.827 1.518 0 2.956-.68 3.901-1.867-.099-.096-.36-.659-1.244-.659-.828 0-1.016.83-2.657.83-1.61 0-2.947-1.362-2.947-3.134 0-1.773 1.333-3.2 2.947-3.2 1.465 0 1.816.87 2.57.87.758 0 1.196-.603 1.3-.698C50.197.975 48.796.292 47.278.292" transform="translate(49.267 16.615) translate(7.082)"/>
            </g>
        </g>
        <path fill="#E02636" d="M32.002 30.49c-.678-5.108-3.193-9.275-5.764-9.293-2.571 0-6.331 4.17-8.52 9.301-2.19 5.133.289 9.293 5.795 9.293 5.542-.059 9.166-4.185 8.489-9.302"/>
        <path fill="#FFF" d="M5.746 16.892c-3.289 0-5.687 2.597-5.687 5.883 0 3.287 2.398 5.807 5.687 5.807 1.829 0 3.556-.819 4.699-2.247-.124-.117-.44-.787-1.5-.787-.998 0-1.225 1-3.2 1-1.933 0-3.54-1.64-3.54-3.77 0-2.132 1.604-3.846 3.54-3.846 1.765 0 2.187 1.05 3.095 1.05.909 0 1.438-.727 1.561-.84-1.139-1.428-2.826-2.25-4.655-2.25M17.345 17.234h-4.622c-.782 0-1.327.468-1.327 1.212v.683h2.06s.077 6.957-.01 7.708v.003c-.027.572-.276 1.948-1.6 2.57-1.087.51-1.1.996-1.155 1.75.015.055.037.09.07.09h.007c.006 0 .01 0 .012-.004.04-.01 1.081-.264 1.232-.33l-.003-.002c.976-.305 2.472-.972 3.184-2.357 0 0 .668-1.028.656-3.23v-6.2h.098c.782 0 1.407-.469 1.407-1.216v-.677"/>
        <path fill="#EA8B00" d="M41.184 13.575c-4.822-1.895-9.693-1.695-10.937.548-1.213 2.277.585 7.542 4.018 11.942 3.427 4.4 8.27 4.252 10.94-.56 2.642-4.797.789-10.04-4.021-11.93"/>
        <path fill="#007AC3" d="M16.668 15.11c4.28 2.92 9.07 3.804 10.767 1.908 1.713-1.907 1.121-7.486-1.24-12.541-2.362-5.052-7.12-5.988-10.793-1.89C11.775 6.68 12.4 12.2 16.668 15.112"/>
    </g>
</svg>
