<svg xmlns="http://www.w3.org/2000/svg" xmlns:xlink="http://www.w3.org/1999/xlink" width="22" height="23" viewBox="0 0 22 23">
    <defs>
        <path id="prefix__a" d="M0 0L60 0 60 60 0 60z"/>
    </defs>
    <g fill="none" fill-rule="evenodd" transform="translate(-19 -19)">
        <mask id="prefix__b" fill="#fff">
            <use xlink:href="#prefix__a"/>
        </mask>
        <path fill="#45474e" d="M34.625 29.678c-.392-.409-1.027-.409-1.42 0l-4.238 4.424-2.244-2.341c-.403-.421-1.058-.421-1.461 0-.404.42-.404 1.104 0 1.525l2.923 3.05c.207.216.48.317.752.31.26.004.522-.096.721-.304l4.967-5.183c.392-.409.392-1.072 0-1.48m4.266 12.196H20.99c-1.098 0-1.989-.939-1.989-2.096V25.06c0-1.158.89-2.096 1.99-2.096h.994v-2.408c0-.86.668-1.557 1.491-1.557.824 0 1.492.697 1.492 1.557v2.408h9.946v-2.408c0-.86.668-1.557 1.492-1.557s1.492.697 1.492 1.557v2.408h.994c1.099 0 1.99.938 1.99 2.096v14.718c0 1.157-.891 2.096-1.99 2.096" mask="url(#prefix__b)"/>
    </g>
</svg>
