<svg xmlns="http://www.w3.org/2000/svg" xmlns:xlink="http://www.w3.org/1999/xlink" width="60" height="60" viewBox="0 0 60 60">
    <g fill="none" fill-rule="evenodd">
        <path d="M0 0H40V40H0z"/>
        <g transform="translate(17 18)">
	    <path fill="#8B919C" fill-rule="nonzero" d="M13.245 1.284v10.007h9.883c.3 0 .534-.255.52-.559-.277-5.378-4.535-9.694-9.852-9.975-.3-.013-.551.224-.551.527zM24.734 13.4c.3 0 .534.255.52.558-.121 2.338-1.006 4.64-2.656 6.495-.2.224-.547.237-.76.022L14.852 13.4h9.883zm-6.585 6.372c.209.21.204.562-.017.76-1.849 1.688-4.297 2.712-6.979 2.712C5.415 23.239.736 18.489.745 12.674.754 7.046 5.12 2.455 10.61 2.165c.3-.018.552.223.552.526v10.007l6.987 7.075z"/>
        </g>
    </g>
</svg>