<svg xmlns="http://www.w3.org/2000/svg" xmlns:xlink="http://www.w3.org/1999/xlink" width="19" height="27" viewBox="0 0 19 27">
    <defs>
        <path id="prefix__a" d="M0 0L60 0 60 60 0 60z"/>
    </defs>
    <g fill="none" fill-rule="evenodd" transform="translate(-20 -16)">
        <mask id="prefix__b" fill="#fff">
            <use xlink:href="#prefix__a"/>
        </mask>
        <path fill="#45474e" d="M35.35 28.82c0 .413-.311.748-.695.748h-.948c-.383 0-.694-.335-.694-.748v-.708c0-.413.31-.748.694-.748h.948c.384 0 .695.335.695.748v.708zm0 4.425c0 .413-.311.748-.695.748h-.948c-.383 0-.694-.335-.694-.748v-.708c0-.413.31-.748.694-.748h.948c.384 0 .695.335.695.748v.708zm0 4.425c0 .413-.311.748-.695.748h-.948c-.383 0-.694-.335-.694-.748v-.708c0-.413.31-.748.694-.748h.948c.384 0 .695.335.695.748v.708zm-4.565-8.85c0 .413-.31.748-.694.748h-5.513c-.383 0-.694-.335-.694-.748v-.708c0-.413.31-.748.694-.748h5.513c.383 0 .694.335.694.748v.708zm0 4.425c0 .413-.31.748-.694.748h-.948c-.384 0-.695-.335-.695-.748v-.708c0-.413.311-.748.695-.748h.948c.383 0 .694.335.694.748v.708zm0 4.425c0 .413-.31.748-.694.748h-.948c-.384 0-.695-.335-.695-.748v-.708c0-.413.311-.748.695-.748h.948c.383 0 .694.335.694.748v.708zm-4.564-4.425c0 .413-.31.748-.694.748h-.949c-.383 0-.694-.335-.694-.748v-.708c0-.413.31-.748.694-.748h.949c.383 0 .694.335.694.748v.708zm0 4.425c0 .413-.31.748-.694.748h-.949c-.383 0-.694-.335-.694-.748v-.708c0-.413.31-.748.694-.748h.949c.383 0 .694.335.694.748v.708zm-2.337-16.788c0-.413.31-.748.694-.748h9.964c.383 0 .694.335.694.748v1.476c0 .413-.31.747-.694.747h-9.964c-.383 0-.694-.334-.694-.747v-1.476zM36.08 16.64H23.039c-1.256 0-2.279 1.101-2.279 2.455v20.61c0 1.354 1.023 2.455 2.28 2.455h13.04c1.257 0 2.28-1.101 2.28-2.455v-20.61c0-1.354-1.023-2.455-2.28-2.455z" mask="url(#prefix__b)"/>
    </g>
</svg>
