<svg xmlns="http://www.w3.org/2000/svg" xmlns:xlink="http://www.w3.org/1999/xlink" width="60" height="60" viewBox="0 0 60 60">
    <g fill="none" fill-rule="evenodd">
        <path d="M0 0H40V40H0z"/>
        <g transform="translate(18 20)">
	    <path fill="#45474e" fill-rule="nonzero" d="M1.554 3.945h20.892c.444 0 .804-.35.804-.78V1.21c0-.432-.36-.781-.804-.781H1.554C1.11.43.75.78.75 1.21v1.954c0 .432.36.781.804.781zm0 7.813h20.892c.444 0 .804-.35.804-.781V9.023c0-.431-.36-.78-.804-.78H1.554c-.444 0-.804.349-.804.78v1.954c0 .431.36.78.804.78zm0 7.812h20.892c.444 0 .804-.35.804-.78v-1.954c0-.432-.36-.781-.804-.781H1.554c-.444 0-.804.35-.804.78v1.954c0 .432.36.781.804.781z"/>
        </g>
    </g>
</svg>



