<svg xmlns="http://www.w3.org/2000/svg" xmlns:xlink="http://www.w3.org/1999/xlink" width="60" height="60" viewBox="0 0 60 60">
    <g fill="none" fill-rule="evenodd">
        <path d="M0 0H40V40H0z"/>
        <g transform="translate(17 19)">
	    <path fill="#45474e" fill-rule="nonzero" d="M14.953.063h9.375c.647 0 1.172.524 1.172 1.171v7.813c0 .647-.525 1.172-1.172 1.172h-9.375c-.647 0-1.172-.525-1.172-1.172V1.234c0-.647.525-1.171 1.172-1.171zm-3.906 0H1.672C1.025.063.5.587.5 1.234v7.813c0 .647.525 1.172 1.172 1.172h9.375c.647 0 1.172-.525 1.172-1.172V1.234c0-.647-.525-1.171-1.172-1.171zM.5 12.953v7.813c0 .647.525 1.172 1.172 1.172h9.375c.647 0 1.172-.525 1.172-1.172v-7.813c0-.647-.525-1.172-1.172-1.172H1.672c-.647 0-1.172.525-1.172 1.172zm14.453 8.985h9.375c.647 0 1.172-.525 1.172-1.172v-7.813c0-.647-.525-1.172-1.172-1.172h-9.375c-.647 0-1.172.525-1.172 1.172v7.813c0 .647.525 1.172 1.172 1.172z"/>
        </g>
    </g>
</svg>
