
<svg xmlns="http://www.w3.org/2000/svg" xmlns:xlink="http://www.w3.org/1999/xlink" width="60" height="60" viewBox="0 0 60 60">
    <g fill="none" fill-rule="evenodd">
        <path d="M0 0H40V40H0z"/>
        <g transform="translate(23 17)">
	    <path fill="#45474e" fill-rule="nonzero" d="M4.54 8.77c0-1.14 1.093-1.876 2.786-1.876 1.357 0 2.748.6 3.882 1.384.299.206.718.115.893-.196l1.196-2.127c.134-.239.08-.536-.13-.716-1.234-1.05-3.004-1.665-4.637-1.846V1.086C8.53.762 8.257.5 7.92.5H5.89c-.337 0-.61.262-.61.586v2.433C2.303 4.17.34 6.25.34 8.824c0 6.032 9.382 5.41 9.382 8.272 0 .968-.828 2.01-2.647 2.01-1.562 0-3.196-.776-4.461-1.753-.27-.208-.664-.162-.871.105L.199 19.444c-.184.237-.156.569.067.773 1.22 1.124 3.008 2.015 5.014 2.343v2.354c0 .324.273.586.61.586h2.03c.337 0 .61-.262.61-.586v-2.316c3.338-.499 5.392-2.89 5.392-5.69 0-5.844-9.383-5.063-9.383-8.138z"/>
        </g>
    </g>
</svg>
