<svg xmlns="http://www.w3.org/2000/svg" xmlns:xlink="http://www.w3.org/1999/xlink" width="25" height="22" viewBox="0 0 25 22">
    <defs>
        <path id="prefix__a" d="M0 0L60 0 60 60 0 60z"/>
    </defs>
    <g fill="none" fill-rule="evenodd" transform="translate(-18 -19)">
        <mask id="prefix__b" fill="#fff">
            <use xlink:href="#prefix__a"/>
        </mask>
        <path fill="#45474e" d="M39.116 34.357h-5.76c-.53 0-.959.43-.959.96s.43.96.96.96h5.759c.53 0 .96-.43.96-.96s-.43-.96-.96-.96m0-3.84h-5.76c-.53 0-.959.43-.959.96s.43.96.96.96h5.759c.53 0 .96-.43.96-.96s-.43-.96-.96-.96m0-3.838h-5.76c-.53 0-.959.43-.959.96s.43.96.96.96h5.759c.53 0 .96-.43.96-.96s-.43-.96-.96-.96m-6.719-5.76h-3.84c-.53 0-.959.43-.959.96s.43.96.96.96h3.84c.53 0 .959-.43.959-.96s-.43-.96-.96-.96M25.2 26.68c-1.326 0-2.4 1.074-2.4 2.399s1.074 2.4 2.4 2.4c1.325 0 2.4-1.075 2.4-2.4s-1.075-2.4-2.4-2.4m-4.32 9.599h8.639c0-2.12-1.72-3.84-3.84-3.84h-.96c-2.12 0-3.839 1.72-3.839 3.84m20.156 3.839H19.92c-1.06 0-1.92-.86-1.92-1.92V20.92c0-1.06.86-1.92 1.92-1.92h21.115c1.06 0 1.92.86 1.92 1.92v17.276c0 1.06-.86 1.92-1.92 1.92" mask="url(#prefix__b)"/>
    </g>
</svg>
