<svg xmlns="http://www.w3.org/2000/svg" xmlns:xlink="http://www.w3.org/1999/xlink" width="60" height="60" viewBox="0 0 60 60">
    <g fill="none" fill-rule="evenodd">
        <path d="M0 0H40V40H0z"/>
        <g transform="translate(17 18)">
	    <path fill="#45474e" fill-rule="nonzero" d="M23.417.75H2.583C1.433.75.5 1.695.5 2.86v14.062c0 1.164.933 2.11 2.083 2.11h8.334l-.695 2.109H7.097c-.577 0-1.041.47-1.041 1.054 0 .585.464 1.055 1.041 1.055h11.806c.577 0 1.041-.47 1.041-1.055 0-.584-.464-1.054-1.041-1.054h-3.125l-.695-2.11h8.334c1.15 0 2.083-.945 2.083-2.11V2.86c0-1.164-.933-2.109-2.083-2.109zm-.695 15.469H3.278V3.562h19.444V16.22z"/>
        </g>
    </g>
</svg>
