<svg xmlns="http://www.w3.org/2000/svg" xmlns:xlink="http://www.w3.org/1999/xlink" width="60" height="60" viewBox="0 0 60 60">
    <g fill="none" fill-rule="evenodd">
        <path d="M0 0H40V40H0z"/>
        <g transform="translate(17 20)">
	    <path fill="#8B919C" fill-rule="nonzero" d="M24.914 16.25c.322 0 .586.264.586.586v1.953c0 .322-.264.586-.586.586H1.086c-.322 0-.586-.264-.586-.586V1.211c0-.322.264-.586.586-.586h1.953c.322 0 .586.264.586.586V16.25h21.29zM22.766 2.187h-5.47c-1.044 0-1.567 1.265-.83 2.002l1.607 1.607-3.515 3.56-2.715-2.715c-.23-.23-.596-.23-.825 0l-5.811 5.752c-.23.224-.234.595-.01.825l1.392 1.435c.23.235.605.24.835.005l4.009-4.009 2.71 2.71c.23.23.6.23.83 0l5.332-5.332 1.63 1.631c.738.738 2.003.215 2.003-.83V3.36c0-.649-.523-1.171-1.172-1.171z"/>
        </g>
    </g>
</svg>