<svg xmlns="http://www.w3.org/2000/svg" xmlns:xlink="http://www.w3.org/1999/xlink" width="830" height="400" viewBox="0 0 830 400">
    <defs>
        <filter id="prefix__b" width="106%" height="113%" x="-2.6%" y="-5.7%" filterUnits="objectBoundingBox">
            <feOffset dx="3" dy="3" in="SourceAlpha" result="shadowOffsetOuter1"/>
            <feGaussianBlur in="shadowOffsetOuter1" result="shadowBlurOuter1" stdDeviation="7.5"/>
            <feColorMatrix in="shadowBlurOuter1" values="0 0 0 0 0 0 0 0 0 0 0 0 0 0 0 0 0 0 0.15 0"/>
        </filter>
        <path id="prefix__a" d="M0 0H800V370H0z"/>
    </defs>
    <g fill="none" fill-rule="evenodd" transform="translate(12 12)">
        <mask id="prefix__c" fill="#fff">
            <use xlink:href="#prefix__a"/>
        </mask>
        <use fill="#000" filter="url(#prefix__b)" xlink:href="#prefix__a"/>
        <use fill="#283340" xlink:href="#prefix__a"/>
        <use fill="#313C49" xlink:href="#prefix__a"/>
        <g mask="url(#prefix__c)">
            <g>
                <path fill="#1D2835" d="M0 0L304 163.786 304 284 0 120.214z" opacity=".9" transform="translate(0 -18) matrix(1 0 0 -1 44 477)"/>
                <path fill="#E42F44" d="M0 0L80 43.253 80 75 0 31.747z" transform="translate(0 -18) matrix(1 0 0 -1 0 368)"/>
                <path fill="#1E252E" d="M0 44.459L80 0 80 30.541 0 75z" transform="translate(0 -18) translate(80 218)"/>
                <path fill="#1E252E" d="M0 44.459L80 0 80 30.541 0 75z" transform="translate(0 -18) translate(683)"/>
            </g>
        </g>
        <path fill="#0080C6" d="M740 0L810 0 810 370 740 370z" mask="url(#prefix__c)" transform="matrix(1 0 0 -1 0 370)"/>
        <g mask="url(#prefix__c)" opacity=".8">
            <g fill="#FFF">
                <path d="M0 0L121 64.95 121 75 0 10.05z" transform="translate(740 222) matrix(1 0 0 -1 0 75)"/>
                <path d="M0 16L121 80.95 121 91 0 26.05z" transform="translate(740 222) matrix(1 0 0 -1 0 107)"/>
                <path d="M0 32L121 96.95 121 107 0 42.05z" transform="translate(740 222) matrix(1 0 0 -1 0 139)"/>
            </g>
        </g>
    </g>
</svg>
