<svg xmlns="http://www.w3.org/2000/svg" width="60" height="60" viewBox="0 0 60 60">
    <g fill="none" fill-rule="evenodd">
        <path d="M0 0H59.514V60H0z"/>
        <path fill="#FFF" fill-rule="nonzero" d="M20.18 17.4h4.413c0-2.982 2.37-5.4 5.294-5.4 2.923 0 5.294 2.418 5.294 5.4h4.412c2.923 0 5.294 2.418 5.294 5.4v19.8c0 2.982-2.37 5.4-5.294 5.4H20.18c-2.924 0-5.294-2.418-5.294-5.4V22.8c0-2.982 2.37-5.4 5.294-5.4zm0 1.8c-1.948 0-3.529 1.612-3.529 3.6v19.8c0 1.988 1.58 3.6 3.53 3.6h19.412c1.949 0 3.529-1.612 3.529-3.6V22.8c0-1.988-1.58-3.6-3.53-3.6h-1.764v5.4H21.945v-5.4h-1.764zm3.53 3.6h12.353v-3.6H23.71v3.6zm6.177-9c-1.95 0-3.53 1.612-3.53 3.6h7.06c0-1.988-1.581-3.6-3.53-3.6zm9.97 15.48L27.24 42.15l-5.647-5.76 1.248-1.272 4.399 4.486 11.369-11.596 1.247 1.273z"/>
    </g>
</svg>
