<svg xmlns="http://www.w3.org/2000/svg" xmlns:xlink="http://www.w3.org/1999/xlink" width="101" height="100" viewBox="0 0 101 100">
    <defs>
        <path id="prefix__a" d="M4.196 6.898c0-.835.802-1.375 2.043-1.375.995 0 2.015.439 2.847 1.014.22.152.526.084.655-.144l.877-1.56c.098-.174.06-.393-.096-.525-.904-.769-2.202-1.22-3.4-1.353V1.263c0-.237-.2-.43-.447-.43h-1.49c-.246 0-.446.193-.446.43v1.784c-2.183.476-3.623 2.003-3.623 3.89 0 4.424 6.88 3.968 6.88 6.067 0 .71-.607 1.473-1.941 1.473-1.145 0-2.344-.568-3.271-1.285-.198-.152-.488-.118-.64.077l-1.131 1.456c-.135.174-.115.418.048.568.896.824 2.207 1.477 3.678 1.717v1.727c0 .237.2.43.447.43h1.49c.246 0 .446-.193.446-.43v-1.699c2.448-.365 3.954-2.119 3.954-4.172 0-4.285-6.88-3.713-6.88-5.968z"/>
    </defs>
    <g fill="none" fill-rule="evenodd">
        <path d="M0 0H100V100H0z" transform="translate(.5)"/>
        <g transform="translate(.5) translate(26.5 21)">
            <rect width="43.2" height="51.2" x="2.9" y="3.4" stroke="#fff" stroke-width="2.8" rx="8"/>
            <path fill="#fff" d="M33.051 42.772v2.5H11.95v-2.5H33.05zm0-7.047v2.5H11.95v-2.5H33.05zM22.5 28.678v2.5H11.949v-2.5H22.5zm0-7.047v2.5H11.949v-2.5H22.5z"/>
            <g transform="translate(25.923 11.63)">
                <mask id="prefix__b" fill="#fff">
                    <use xlink:href="#prefix__a"/>
                </mask>
                <use fill="#fff" fill-rule="nonzero" xlink:href="#prefix__a"/>
                <g fill="#fff" mask="url(#prefix__b)">
                    <path d="M0 0H22V22H0z" transform="translate(-5 -1)"/>
                </g>
            </g>
        </g>
    </g>
</svg>
