<svg xmlns="http://www.w3.org/2000/svg" xmlns:xlink="http://www.w3.org/1999/xlink" width="90" height="90" viewBox="0 0 90 90">
    <defs>
        <path id="prefix__a" d="M7.36 1.16v5.496h5.427c.165 0 .294-.14.286-.306-.152-2.954-2.49-5.324-5.41-5.479-.165-.007-.303.123-.303.29zm6.31 6.655c.164 0 .293.14.285.306-.066 1.284-.553 2.549-1.458 3.567-.11.123-.3.13-.418.012L8.242 7.815h5.427zm-3.617 3.5c.115.115.112.308-.01.417-1.015.926-2.36 1.489-3.832 1.489C3.06 13.218.49 10.609.495 7.416.5 4.325 2.898 1.803 5.913 1.643c.164-.01.303.124.303.29v5.496l3.837 3.885z"/>
    </defs>
    <g fill="none" fill-rule="evenodd">
        <path d="M0 0H90V90H0z"/>
        <g>
            <path fill="#fff" fill-rule="nonzero" d="M2.533 43.333c0 2.992 2.269 5.417 5.067 5.417h17.135c-1.203-1.438-1.935-3.336-1.935-5.417H2.533zM30.4 48.75c2.798 0 5.067-2.425 5.067-5.417V8.125c0-2.081.732-3.98 1.935-5.417H15.2c-2.798 0-5.067 2.425-5.067 5.417v32.5h15.2v2.708c0 2.992 2.269 5.417 5.067 5.417zM7.6 8.125C7.6 3.638 11.003 0 15.2 0h27.867c4.197 0 7.6 3.638 7.6 8.125v5.417H38v29.791c0 4.488-3.403 8.125-7.6 8.125H7.6c-4.197 0-7.6-3.637-7.6-8.125v-2.708h7.6v-32.5zm40.533 2.708V8.125c0-2.992-2.268-5.417-5.066-5.417C40.268 2.708 38 5.133 38 8.125v2.708h10.133z" transform="translate(19.35 18.875)"/>
            <path fill="#fff" d="M30.485 34.04v2.926H14.801V34.04h15.684zm.36-6.379v2.927H15.16V27.66h15.684z" transform="translate(19.35 18.875)"/>
            <g transform="translate(19.35 18.875) translate(14.985 10.054)">
                <use fill="#fff" fill-rule="nonzero" xlink:href="#prefix__a"/>
            </g>
        </g>
    </g>
</svg>
