<svg xmlns="http://www.w3.org/2000/svg" xmlns:xlink="http://www.w3.org/1999/xlink" width="60" height="60" viewBox="0 0 60 60">
    <g fill="none" fill-rule="evenodd">
        <path d="M0 0H40V40H0z"/>
        <g transform="translate(17 20)">
	    <path fill="#fff" fill-rule="nonzero" d="M25.5 1.212v14.764c0 .4-.223.765-.576.943l-5.555 2.813c-.685.347-1.508-.152-1.508-.944V4.024c0-.4.223-.765.576-.943L23.992.268c.686-.347 1.508.152 1.508.944zM16.548 3.06L10.298.248c-.684-.308-1.465.196-1.465.964v14.764c0 .417.243.794.619.964l6.25 2.812c.684.308 1.465-.196 1.465-.964V4.024c0-.417-.243-.794-.619-.964zM6.631.268L1.076 3.08C.723 3.26.5 3.624.5 4.023v14.765c0 .792.822 1.29 1.508.944l5.555-2.812c.353-.179.576-.544.576-.943V1.212c0-.792-.823-1.29-1.508-.944z"/>
        </g>
    </g>
</svg>
