<svg xmlns="http://www.w3.org/2000/svg" width="25" height="25" viewBox="0 0 25 25">
    <g fill="none" fill-rule="evenodd">
        <path d="M0 0H60V60H0z" transform="translate(-18 -17)"/>
        <path fill="#fff" d="M40.699 20.922h-8.327l-3.708-3.707c-.137-.138-.323-.215-.517-.215H20.3C19.028 17 18 18.03 18 19.301v17.26c0 1.273 1.03 2.301 2.301 2.301h11.93c-.14-.517-.214-1.06-.214-1.621 0-3.432 2.792-6.224 6.224-6.224 1.907 0 3.616.862 4.759 2.218V23.224c0-1.273-1.03-2.302-2.301-2.302" transform="translate(-18 -17)"/>
        <path fill="#fff" d="M38.24 32.482c-2.628 0-4.758 2.13-4.758 4.759 0 2.628 2.13 4.759 4.759 4.759C40.869 42 43 39.87 43 37.24c0-2.628-2.13-4.758-4.76-4.758m2.548 3.63l-2.353 3.137c-.25.333-.77.414-1.104.079l-1.57-1.57c-.285-.285-.285-.749 0-1.035.287-.286.75-.286 1.037 0l.971.972 1.847-2.463c.243-.323.702-.389 1.026-.146.323.243.389.702.146 1.025" transform="translate(-18 -17)"/>
    </g>
</svg>
