<svg xmlns="http://www.w3.org/2000/svg" xmlns:xlink="http://www.w3.org/1999/xlink" width="60" height="60" viewBox="0 0 60 60">
    <g fill="none" fill-rule="evenodd">
        <path d="M0 0H40V40H0z"/>
        <g transform="translate(20 17)">
	    <path fill="#fff" fill-rule="nonzero" d="M17.031.5H2.97C1.674.5.625 1.55.625 2.844v20.312c0 1.295 1.05 2.344 2.344 2.344H17.03c1.295 0 2.344-1.05 2.344-2.344V2.844c0-1.295-1.05-2.344-2.344-2.344zM6.875 2.648c0-.323.262-.586.586-.586h5.078c.324 0 .586.263.586.586v.391c0 .324-.262.586-.586.586H7.461c-.324 0-.586-.262-.586-.586v-.39zM10 8.313c2.157 0 3.906 1.748 3.906 3.906 0 2.157-1.749 3.906-3.906 3.906s-3.906-1.749-3.906-3.906c0-2.158 1.749-3.906 3.906-3.906zm6.25 11.328c0 .647-.525 1.172-1.172 1.172H4.922c-.647 0-1.172-.525-1.172-1.172v-.905c0-1.075.732-2.013 1.775-2.274l1.741-.435c1.421 1.022 3.638 1.316 5.468 0l1.74.435c1.044.261 1.776 1.199 1.776 2.274v.905z"/>
        </g>
    </g>
</svg>