<svg xmlns="http://www.w3.org/2000/svg" width="16" height="16" viewBox="0 0 16 16">
    <g fill="none" fill-rule="evenodd">
        <path d="M0 0H16V16H0z"/>
        <path fill-rule="nonzero" stroke="#CAD0D7" d="M8 1.833c-1.243 0-2.368.504-3.182 1.318-.814.815-1.318 1.94-1.318 3.182 0 1.58.5 2.212 2.651 5.276.493.702 1.071 1.525 1.952 2.504.675-.979 1.253-1.802 1.746-2.504 2.15-3.064 2.651-3.697 2.651-5.276 0-1.242-.504-2.367-1.318-3.182-.814-.814-1.94-1.318-3.182-1.318z"/>
        <path fill-rule="nonzero" stroke="#CAD0D7" d="M8 4.75c-.437 0-.833.177-1.12.464-.286.286-.463.682-.463 1.12 0 .437.177.832.463 1.119.287.286.683.464 1.12.464.437 0 .833-.178 1.12-.464.286-.287.463-.682.463-1.12 0-.437-.177-.833-.463-1.12-.287-.286-.683-.463-1.12-.463z"/>
    </g>
</svg>
